<svg xmlns="http://www.w3.org/2000/svg" viewBox="0 0 826.54 349.27"><defs><style>.bcb4e5b8-a291-4386-b6f2-1e9a3ded5254{fill:#e6e6e6;}.acc9f562-1b03-4c07-ad0b-dca5de5c183e{fill:#ccc;}.ecca0f91-218d-4203-ad8c-88f5043ef0c4{fill:#f2f2f2;}.a6cca96d-65a3-4d79-ab63-769efa7f38c9,.b8e4aa52-7ccd-4f43-8048-ffc842b15bc2{fill:#fff;}.aa27361c-8960-44a0-b9ea-74e90cedb1ac,.e3fa36e1-5836-49c3-93d2-548372a87e81{fill:#01c0ad;}.b8e4aa52-7ccd-4f43-8048-ffc842b15bc2{stroke:#ccc;}.a71657ed-4ada-4d5e-a234-cabc678fbb03,.b8e4aa52-7ccd-4f43-8048-ffc842b15bc2,.bcc94691-0c50-4c9e-abf6-bd1fe3b092d8{stroke-miterlimit:10;}.aa27361c-8960-44a0-b9ea-74e90cedb1ac{opacity:0.8;}.aa27361c-8960-44a0-b9ea-74e90cedb1ac,.b087a09f-8f4f-4aa6-a076-ce3d05c9422e,.ba8ef7aa-4e47-4bc7-ab87-0934a0228670,.f64796c1-92bc-4eeb-b72a-33e0b9745166{isolation:isolate;}.a82c591b-1a78-429d-a998-095b8c06d1e4{fill:#3f3d56;}.f64796c1-92bc-4eeb-b72a-33e0b9745166{font-size:4.21px;fill:#d0cde1;font-family:Montserrat-Regular, Montserrat;}.a71657ed-4ada-4d5e-a234-cabc678fbb03,.ba8ef7aa-4e47-4bc7-ab87-0934a0228670,.bcc94691-0c50-4c9e-abf6-bd1fe3b092d8{opacity:0.5;}.a71657ed-4ada-4d5e-a234-cabc678fbb03,.b219f855-98a6-4fc3-b997-e0474059fb73,.bcc94691-0c50-4c9e-abf6-bd1fe3b092d8{fill:none;}.a71657ed-4ada-4d5e-a234-cabc678fbb03,.bcc94691-0c50-4c9e-abf6-bd1fe3b092d8{stroke:#3f3d56;}.bcc94691-0c50-4c9e-abf6-bd1fe3b092d8{stroke-width:5px;}.a71657ed-4ada-4d5e-a234-cabc678fbb03{stroke-width:8px;}</style></defs><g id="bb18e97a-e6de-4db2-a4b8-69ffc3100115" data-name="Layer 2"><g id="a44009cd-664a-499b-9763-ef9d32049d15" data-name="Layer 1"><path class="bcb4e5b8-a291-4386-b6f2-1e9a3ded5254" d="M197.74,164.86l-28-28a12.41,12.41,0,1,0-17.55,17.56l5.87,5.87-1.23.07-1.85.11c-.62,0-1.24.11-1.86.16l-3.7.32-3.7.44-1.84.22-1.84.27-3.68.55-3.65.66c-1.22.22-2.44.43-3.64.71a180.17,180.17,0,0,0-28.37,8.37c-1.16.41-2.28.92-3.42,1.39L95.87,175c-2.25,1-4.46,2.06-6.69,3.09l-3.27,1.67-1.64.84c-.55.28-1.09.56-1.62.87l-3.21,1.79-1.6.9-1.57,1A183.26,183.26,0,0,0,52.51,202a194.71,194.71,0,0,0-20.66,20.25c-1.61,1.79-3.13,3.64-4.67,5.48s-3,3.73-4.46,5.64c-2.9,3.81-5.69,7.7-8.31,11.69A201.9,201.9,0,0,0,.35,270,3.75,3.75,0,0,0,7,273.42H7a194.67,194.67,0,0,1,15.26-22.72C25,247.09,28,243.6,31,240.22c1.5-1.71,3.07-3.35,4.62-5s3.16-3.25,4.8-4.81A181.49,181.49,0,0,1,61.11,213,168.41,168.41,0,0,1,84,199.24l1.48-.75L87,197.8l3-1.4c.5-.24,1-.46,1.52-.67l1.53-.64,3.07-1.28c2.08-.76,4.13-1.57,6.22-2.3l3.14-1c1-.34,2.09-.71,3.16-1A159.76,159.76,0,0,1,134.47,184c1.09-.17,2.18-.26,3.27-.38l3.27-.33,3.27-.23,1.64-.11,1.64-.07,3.28-.13,3.28,0c.54,0,1.09,0,1.64,0l1.64,0c1.09,0,2.18,0,3.27.08.5,0,1,0,1.49.07l-10,10a12.41,12.41,0,0,0,17.55,17.56l28-28a12.42,12.42,0,0,0,0-17.55Z"/><path class="acc9f562-1b03-4c07-ad0b-dca5de5c183e" d="M794.24,42H265.78A10.77,10.77,0,0,0,255,52.79V67.26H805V52.79A10.77,10.77,0,0,0,794.24,42Z"/><path class="acc9f562-1b03-4c07-ad0b-dca5de5c183e" d="M255,69.27H805a0,0,0,0,1,0,0v270a10,10,0,0,1-10,10H265a10,10,0,0,1-10-10v-270a0,0,0,0,1,0,0Z"/><rect class="ecca0f91-218d-4203-ad8c-88f5043ef0c4" x="283.81" y="69.27" width="497.71" height="251.58"/><rect class="a6cca96d-65a3-4d79-ab63-769efa7f38c9" x="323.77" y="100.83" width="221.38" height="9.63"/><rect class="a6cca96d-65a3-4d79-ab63-769efa7f38c9" x="323.77" y="120.08" width="221.38" height="9.63"/><rect class="a6cca96d-65a3-4d79-ab63-769efa7f38c9" x="323.77" y="139.33" width="125.13" height="9.63"/><rect class="a6cca96d-65a3-4d79-ab63-769efa7f38c9" x="323.77" y="158.58" width="182.88" height="9.63"/><rect class="a6cca96d-65a3-4d79-ab63-769efa7f38c9" x="323.77" y="177.83" width="154" height="9.63"/><rect class="a6cca96d-65a3-4d79-ab63-769efa7f38c9" x="323.77" y="197.08" width="221.38" height="9.63"/><rect class="a6cca96d-65a3-4d79-ab63-769efa7f38c9" x="333.4" y="225.96" width="192.5" height="77"/><circle class="bcb4e5b8-a291-4386-b6f2-1e9a3ded5254" cx="277.22" cy="55.15" r="5"/><circle class="bcb4e5b8-a291-4386-b6f2-1e9a3ded5254" cx="297.22" cy="55.15" r="5"/><circle class="bcb4e5b8-a291-4386-b6f2-1e9a3ded5254" cx="317.22" cy="55.15" r="5"/><rect class="e3fa36e1-5836-49c3-93d2-548372a87e81" x="762.21" y="45.02" width="19.31" height="19.31"/><g id="add0a195-bad3-4788-b3e2-9ff2bfedaafa" data-name="Group 456"><rect id="a415260c-965e-4f02-a9b6-31fe94590901" data-name="Rectangle 618-2" class="b8e4aa52-7ccd-4f43-8048-ffc842b15bc2" x="623.52" y="69.27" width="158" height="158"/><path id="baa30ea6-bbd3-4282-a4d6-85778af4baa3" data-name="Path 90" class="aa27361c-8960-44a0-b9ea-74e90cedb1ac" d="M631.23,98.62c7.34-7.86,17.82-13.7,46.93-18.46,47.2-7.71,71.1-11.8,87.18,2.28,10.89,9.53,13,22.17,16.18,63.66h0V69.27h-158v40.85A42.1,42.1,0,0,1,631.23,98.62Z"/><g class="b087a09f-8f4f-4aa6-a076-ce3d05c9422e"><path class="a82c591b-1a78-429d-a998-095b8c06d1e4" d="M651.55,118.81h-2.76l-.55,1.28h-1.06l2.49-5.53h1l2.5,5.53h-1.07Zm-.34-.81-1-2.42-1,2.42Z"/><path class="a82c591b-1a78-429d-a998-095b8c06d1e4" d="M653.88,114.56h2.42a2.78,2.78,0,1,1,0,5.53h-2.42Zm2.37,4.66a1.9,1.9,0,1,0,0-3.79h-1.34v3.79Z"/><path class="a82c591b-1a78-429d-a998-095b8c06d1e4" d="M660.41,114.56h2.42a2.78,2.78,0,1,1,0,5.53h-2.42Zm2.37,4.66a1.9,1.9,0,1,0,0-3.79h-1.34v3.79Z"/><path class="a82c591b-1a78-429d-a998-095b8c06d1e4" d="M670.24,115.43H668.4v-.87h4.7v.87h-1.84v4.66h-1Z"/><path class="a82c591b-1a78-429d-a998-095b8c06d1e4" d="M678.79,114.56v5.53h-1v-2.37H674.9v2.37h-1v-5.53h1v2.28h2.86v-2.28Z"/><path class="a82c591b-1a78-429d-a998-095b8c06d1e4" d="M684.42,119.23v.86h-4.15v-5.53h4v.86h-3v1.44H684v.84H681.3v1.53Z"/><path class="a82c591b-1a78-429d-a998-095b8c06d1e4" d="M692.37,116.53c0,1.21-.9,2-2.35,2h-1.25v1.6h-1v-5.53H690C691.47,114.56,692.37,115.3,692.37,116.53Zm-1,0c0-.7-.47-1.1-1.37-1.1h-1.2v2.19H690C690.87,117.62,691.34,117.22,691.34,116.53Z"/><path class="a82c591b-1a78-429d-a998-095b8c06d1e4" d="M696.71,118.81h-2.77l-.54,1.28h-1.06l2.49-5.53h1l2.5,5.53h-1.08Zm-.34-.81-1-2.42-1,2.42Z"/><path class="a82c591b-1a78-429d-a998-095b8c06d1e4" d="M702.74,117.26h1v2.21a3.54,3.54,0,0,1-2.17.7,2.85,2.85,0,1,1,0-5.69,2.87,2.87,0,0,1,2.22.9l-.65.63a2.05,2.05,0,0,0-1.52-.63,1.95,1.95,0,1,0,0,3.89,2.23,2.23,0,0,0,1.14-.29Z"/><path class="a82c591b-1a78-429d-a998-095b8c06d1e4" d="M709.21,119.23v.86h-4.15v-5.53h4v.86h-3v1.44h2.67v.84h-2.67v1.53Z"/></g><g id="ec3eb9f6-f76c-47cf-8f46-e5012765b5b1" data-name=" " class="b087a09f-8f4f-4aa6-a076-ce3d05c9422e"><text class="f64796c1-92bc-4eeb-b72a-33e0b9745166" transform="translate(649.86 177.23)"><tspan xml:space="preserve">   </tspan></text></g><g id="ad779755-d3c4-454d-b022-e380ff2bdcad" data-name="Group 452"><path id="bad675b6-b286-4e97-af46-98b2dd300ef8" data-name="text path" class="ba8ef7aa-4e47-4bc7-ab87-0934a0228670" d="M757.82,145.9H647.22v-.27h110.6Z"/><g class="b087a09f-8f4f-4aa6-a076-ce3d05c9422e"><path d="M647.42,141.85l.12-.24a1.44,1.44,0,0,0,1,.36c.55,0,.79-.23.79-.52,0-.81-1.82-.31-1.82-1.4,0-.44.34-.81,1.09-.81a1.6,1.6,0,0,1,.91.26l-.1.25a1.5,1.5,0,0,0-.81-.25c-.54,0-.78.24-.78.54,0,.81,1.81.32,1.81,1.39,0,.44-.34.81-1.09.81A1.59,1.59,0,0,1,647.42,141.85Z"/><path d="M652.16,141.2h-1.85a.81.81,0,0,0,.87.77.89.89,0,0,0,.68-.29l.16.19a1.17,1.17,0,0,1-2-.77,1.07,1.07,0,0,1,1.08-1.12,1.05,1.05,0,0,1,1.07,1.12Zm-1.85-.23h1.57a.77.77,0,0,0-.79-.73A.76.76,0,0,0,650.31,141Z"/><path d="M652.78,139.09h.29v3.12h-.29Z"/><path d="M655.84,141.2H654a.83.83,0,0,0,.88.77.86.86,0,0,0,.67-.29l.17.19a1.17,1.17,0,0,1-2-.77,1.08,1.08,0,1,1,2.15,0ZM654,141h1.58a.79.79,0,0,0-1.58,0Z"/><path d="M656.23,141.1a1.09,1.09,0,0,1,1.14-1.12,1,1,0,0,1,.87.44l-.22.15a.75.75,0,0,0-.65-.33.81.81,0,0,0-.84.86.82.82,0,0,0,.84.87.75.75,0,0,0,.65-.33l.22.15a1,1,0,0,1-.87.44A1.1,1.1,0,0,1,656.23,141.1Z"/><path d="M660,142.08a.75.75,0,0,1-.47.15.58.58,0,0,1-.65-.64v-1.34h-.39V140h.39v-.49h.3V140h.67v.25h-.67v1.32a.35.35,0,0,0,.38.4.46.46,0,0,0,.33-.11Z"/><path d="M662.83,142.08a.73.73,0,0,1-.47.15.58.58,0,0,1-.64-.64v-1.34h-.4V140h.4v-.49h.3V140h.67v.25H662v1.32a.35.35,0,0,0,.38.4.49.49,0,0,0,.33-.11Z"/><path d="M665.41,140.93v1.28h-.29V141a.62.62,0,0,0-.67-.71.73.73,0,0,0-.78.8v1.16h-.29v-3.12h.29v1.29a1,1,0,0,1,.83-.4A.85.85,0,0,1,665.41,140.93Z"/><path d="M668.17,141.2h-1.86a.83.83,0,0,0,.87.77.89.89,0,0,0,.68-.29l.17.19a1.17,1.17,0,0,1-2-.77A1.07,1.07,0,0,1,667.1,140a1.05,1.05,0,0,1,1.07,1.12Zm-1.86-.23h1.57a.76.76,0,0,0-.78-.73A.77.77,0,0,0,666.31,141Z"/><path d="M672.13,141.1a1.07,1.07,0,0,1-1.1,1.13,1,1,0,0,1-.85-.44V143h-.29v-3h.28v.43A1,1,0,0,1,671,140,1.07,1.07,0,0,1,672.13,141.1Zm-.3,0a.83.83,0,1,0-.82.87A.82.82,0,0,0,671.83,141.1Z"/><path d="M673.86,140v.29h-.07a.72.72,0,0,0-.75.82v1.13h-.3V140H673v.43A.83.83,0,0,1,673.86,140Z"/><path d="M674.15,141.1a1.13,1.13,0,1,1,1.13,1.13A1.09,1.09,0,0,1,674.15,141.1Zm2,0a.82.82,0,1,0-1.64,0,.82.82,0,1,0,1.64,0Z"/><path d="M676.22,142.91l.11-.23a.53.53,0,0,0,.34.11c.24,0,.37-.14.37-.42V140h.3v2.37a.61.61,0,0,1-.65.68A.77.77,0,0,1,676.22,142.91Zm.75-3.61a.22.22,0,1,1,.22.21A.22.22,0,0,1,677,139.3Z"/><path d="M680.1,141.2h-1.85a.82.82,0,0,0,.87.77.89.89,0,0,0,.68-.29l.17.19a1.12,1.12,0,0,1-.86.36A1.09,1.09,0,0,1,678,141.1,1.07,1.07,0,0,1,679,140a1.06,1.06,0,0,1,1.08,1.12S680.1,141.16,680.1,141.2Zm-1.85-.23h1.57a.79.79,0,0,0-1.57,0Z"/><path d="M680.49,141.1a1.09,1.09,0,0,1,1.15-1.12,1,1,0,0,1,.86.44l-.22.15a.74.74,0,0,0-.64-.33.81.81,0,0,0-.84.86.82.82,0,0,0,.84.87.74.74,0,0,0,.64-.33l.22.15a1,1,0,0,1-.86.44A1.1,1.1,0,0,1,680.49,141.1Z"/><path d="M684.28,142.08a.73.73,0,0,1-.47.15.58.58,0,0,1-.64-.64v-1.34h-.4V140h.4v-.49h.29V140h.68v.25h-.68v1.32a.36.36,0,0,0,.39.4.49.49,0,0,0,.33-.11Z"/><path d="M688,140.93v1.28h-.3V141a.62.62,0,0,0-.67-.71.72.72,0,0,0-.77.8v1.16h-.3V140h.29v.4a.91.91,0,0,1,.84-.42A.85.85,0,0,1,688,140.93Z"/><path d="M690.45,140.84v1.37h-.28v-.34a.86.86,0,0,1-.77.36c-.5,0-.8-.26-.8-.64s.22-.63.85-.63h.7v-.14c0-.37-.21-.58-.62-.58a1.13,1.13,0,0,0-.74.26l-.13-.22a1.39,1.39,0,0,1,.9-.3A.78.78,0,0,1,690.45,140.84Zm-.3.7v-.36h-.69c-.43,0-.57.17-.57.4s.21.42.56.42A.69.69,0,0,0,690.15,141.54Z"/><path d="M694.92,140.93v1.28h-.3V141c0-.47-.23-.71-.63-.71a.71.71,0,0,0-.74.8v1.16H693V141c0-.47-.24-.71-.64-.71a.71.71,0,0,0-.74.8v1.16h-.3V140h.28v.4a.9.9,0,0,1,.82-.42.78.78,0,0,1,.78.47A1,1,0,0,1,694,140,.83.83,0,0,1,694.92,140.93Z"/><path d="M697.68,141.2h-1.86a.83.83,0,0,0,.87.77.89.89,0,0,0,.68-.29l.17.19a1.17,1.17,0,0,1-2-.77,1.07,1.07,0,0,1,1.09-1.12,1.05,1.05,0,0,1,1.07,1.12Zm-1.86-.23h1.57a.76.76,0,0,0-.78-.73A.77.77,0,0,0,695.82,141Z"/></g><g class="b087a09f-8f4f-4aa6-a076-ce3d05c9422e"><path d="M650,132.11c0,.63-.45,1-1.2,1H648v.93h-.31v-3h1.11C649.56,131.1,650,131.48,650,132.11Zm-.31,0c0-.47-.31-.74-.9-.74H648v1.47h.79C649.39,132.84,649.7,132.57,649.7,132.11Z"/><path d="M651.68,131.82v.29h-.07a.72.72,0,0,0-.74.82v1.13h-.3v-2.22h.28v.44A.84.84,0,0,1,651.68,131.82Z"/><path d="M652,132.94a1.13,1.13,0,1,1,1.13,1.13A1.08,1.08,0,0,1,652,132.94Zm1.95,0a.83.83,0,1,0-.82.86A.8.8,0,0,0,653.93,132.94Z"/><path d="M654.05,134.74l.1-.23a.51.51,0,0,0,.35.12c.23,0,.37-.14.37-.42v-2.38h.29v2.38a.61.61,0,0,1-.64.68A.72.72,0,0,1,654.05,134.74Zm.75-3.61a.21.21,0,0,1,.22-.21.22.22,0,1,1,0,.43A.22.22,0,0,1,654.8,131.13Z"/><path d="M657.93,133h-1.86a.9.9,0,0,0,1.55.48l.17.2a1.17,1.17,0,0,1-2-.77,1.08,1.08,0,1,1,2.15,0Zm-1.86-.22h1.58a.79.79,0,0,0-1.58,0Z"/><path d="M658.32,132.94a1.09,1.09,0,0,1,1.14-1.12,1,1,0,0,1,.87.43l-.22.15a.77.77,0,0,0-.65-.32.86.86,0,0,0,0,1.72.77.77,0,0,0,.65-.32l.22.15a1,1,0,0,1-.87.44A1.1,1.1,0,0,1,658.32,132.94Z"/><path d="M662.11,133.91a.71.71,0,0,1-.47.16.59.59,0,0,1-.65-.65v-1.34h-.39v-.25H661v-.48h.3v.48H662v.25h-.67v1.33a.35.35,0,0,0,.38.4.5.5,0,0,0,.33-.11Z"/><path d="M665.79,132.76v1.29h-.3v-1.26c0-.47-.24-.71-.66-.71a.73.73,0,0,0-.78.81v1.16h-.29v-2.22H664v.41a.93.93,0,0,1,.84-.42A.84.84,0,0,1,665.79,132.76Z"/><path d="M668.28,132.67v1.38H668v-.35a.82.82,0,0,1-.76.37c-.5,0-.81-.26-.81-.65s.22-.62.86-.62h.7v-.14c0-.38-.21-.58-.63-.58a1.12,1.12,0,0,0-.73.26l-.14-.23a1.39,1.39,0,0,1,.9-.29C668,131.82,668.28,132.1,668.28,132.67Zm-.3.71V133h-.69c-.43,0-.57.17-.57.4s.2.41.56.41A.71.71,0,0,0,668,133.38Z"/><path d="M672.75,132.76v1.29h-.3v-1.26c0-.47-.24-.71-.64-.71a.72.72,0,0,0-.74.81v1.16h-.3v-1.26c0-.47-.23-.71-.64-.71a.72.72,0,0,0-.74.81v1.16h-.3v-2.22h.29v.41a.89.89,0,0,1,.81-.42.79.79,0,0,1,.79.46,1,1,0,0,1,.88-.46A.83.83,0,0,1,672.75,132.76Z"/><path d="M675.5,133h-1.85a.81.81,0,0,0,.87.77.86.86,0,0,0,.68-.29l.17.2a1.12,1.12,0,0,1-.86.36,1.09,1.09,0,0,1-1.16-1.13,1.08,1.08,0,1,1,2.16,0S675.5,133,675.5,133Zm-1.85-.22h1.57a.79.79,0,0,0-1.57,0Z"/><path d="M676.63,131.68l.52.3-.1.18-.52-.31v.6h-.2v-.6l-.53.31-.1-.18.52-.3-.52-.29.1-.18.53.31v-.6h.2v.6l.52-.31.1.18Z"/></g></g><g id="a03d9f64-0323-48b4-b231-b5c9d44fecd1" data-name="Group 453"><path id="e511e4b5-d120-48e4-839b-c1ab9f33b36a" data-name="text path-2" class="ba8ef7aa-4e47-4bc7-ab87-0934a0228670" d="M757.82,169.6H647.22v-.27h110.6Z"/><g class="b087a09f-8f4f-4aa6-a076-ce3d05c9422e"><path d="M647.42,165.55l.12-.24a1.44,1.44,0,0,0,1,.36c.55,0,.79-.23.79-.52,0-.81-1.82-.31-1.82-1.4,0-.44.34-.81,1.09-.81a1.6,1.6,0,0,1,.91.26l-.1.25a1.5,1.5,0,0,0-.81-.25c-.54,0-.78.24-.78.54,0,.81,1.81.32,1.81,1.39,0,.44-.34.81-1.09.81A1.59,1.59,0,0,1,647.42,165.55Z"/><path d="M652.16,164.9h-1.85a.81.81,0,0,0,.87.77.89.89,0,0,0,.68-.29l.16.19a1.05,1.05,0,0,1-.85.36A1.09,1.09,0,0,1,650,164.8a1.07,1.07,0,0,1,1.08-1.12,1.05,1.05,0,0,1,1.07,1.12Zm-1.85-.23h1.57a.77.77,0,0,0-.79-.73A.76.76,0,0,0,650.31,164.67Z"/><path d="M652.78,162.79h.29v3.12h-.29Z"/><path d="M655.84,164.9H654a.83.83,0,0,0,.88.77.86.86,0,0,0,.67-.29l.17.19a1.05,1.05,0,0,1-.85.36,1.09,1.09,0,0,1-1.16-1.13,1.08,1.08,0,1,1,2.15,0Zm-1.86-.23h1.58a.79.79,0,0,0-1.58,0Z"/><path d="M656.23,164.8a1.09,1.09,0,0,1,1.14-1.12,1,1,0,0,1,.87.44l-.22.15a.75.75,0,0,0-.65-.33.87.87,0,0,0,0,1.73.75.75,0,0,0,.65-.33l.22.15a1,1,0,0,1-.87.44A1.1,1.1,0,0,1,656.23,164.8Z"/><path d="M660,165.78a.75.75,0,0,1-.47.15.58.58,0,0,1-.65-.64V164h-.39v-.25h.39v-.49h.3v.49h.67V164h-.67v1.32a.35.35,0,0,0,.38.4.46.46,0,0,0,.33-.11Z"/><path d="M662.83,165.78a.73.73,0,0,1-.47.15.58.58,0,0,1-.64-.64V164h-.4v-.25h.4v-.49h.3v.49h.67V164H662v1.32a.35.35,0,0,0,.38.4.49.49,0,0,0,.33-.11Z"/><path d="M665.41,164.63v1.28h-.29v-1.25a.62.62,0,0,0-.67-.71.73.73,0,0,0-.78.8v1.16h-.29v-3.12h.29v1.29a1,1,0,0,1,.83-.4A.85.85,0,0,1,665.41,164.63Z"/><path d="M668.17,164.9h-1.86a.83.83,0,0,0,.87.77.89.89,0,0,0,.68-.29l.17.19a1.07,1.07,0,0,1-.85.36A1.1,1.1,0,0,1,666,164.8a1.07,1.07,0,0,1,1.09-1.12,1.05,1.05,0,0,1,1.07,1.12Zm-1.86-.23h1.57a.76.76,0,0,0-.78-.73A.77.77,0,0,0,666.31,164.67Z"/><path d="M672.13,164.8a1.07,1.07,0,0,1-1.1,1.13,1,1,0,0,1-.85-.44v1.24h-.29v-3h.28v.43a1,1,0,0,1,.86-.45A1.07,1.07,0,0,1,672.13,164.8Zm-.3,0a.83.83,0,1,0-.82.87A.82.82,0,0,0,671.83,164.8Z"/><path d="M674.4,164.54v1.37h-.28v-.34a.86.86,0,0,1-.77.36c-.5,0-.81-.26-.81-.64s.22-.63.86-.63h.7v-.14c0-.37-.21-.58-.63-.58a1.12,1.12,0,0,0-.73.26l-.14-.22a1.41,1.41,0,0,1,.9-.3A.78.78,0,0,1,674.4,164.54Zm-.3.71v-.37h-.69c-.43,0-.57.17-.57.4s.21.42.56.42A.7.7,0,0,0,674.1,165.25Z"/><path d="M677.27,163.7v1.94a1,1,0,0,1-1.1,1.11,1.52,1.52,0,0,1-1-.34l.15-.23a1.31,1.31,0,0,0,.87.3c.56,0,.82-.25.82-.8v-.28a1,1,0,0,1-.87.43,1.06,1.06,0,0,1-1.11-1.08,1.05,1.05,0,0,1,1.11-1.07,1,1,0,0,1,.88.44v-.42Zm-.29,1.05a.84.84,0,1,0-.84.81A.79.79,0,0,0,677,164.75Z"/><path d="M680,164.9h-1.85a.82.82,0,0,0,.87.77.89.89,0,0,0,.68-.29l.17.19a1.17,1.17,0,0,1-2-.77,1.07,1.07,0,0,1,1.08-1.12,1.06,1.06,0,0,1,1.08,1.12S680,164.86,680,164.9Zm-1.85-.23h1.57a.79.79,0,0,0-1.57,0Z"/><path d="M683.8,164.63v1.28h-.3v-1.25c0-.47-.24-.71-.66-.71a.73.73,0,0,0-.78.8v1.16h-.3V163.7h.29v.4a.93.93,0,0,1,.84-.42A.85.85,0,0,1,683.8,164.63Z"/><path d="M686.29,164.54v1.37H686v-.34a.84.84,0,0,1-.76.36c-.5,0-.81-.26-.81-.64s.22-.63.85-.63H686v-.14c0-.37-.22-.58-.63-.58a1.13,1.13,0,0,0-.74.26l-.13-.22a1.39,1.39,0,0,1,.9-.3A.79.79,0,0,1,686.29,164.54Zm-.3.71v-.37h-.7c-.43,0-.57.17-.57.4s.21.42.56.42A.72.72,0,0,0,686,165.25Z"/><path d="M690.76,164.63v1.28h-.3v-1.25c0-.47-.24-.71-.64-.71a.71.71,0,0,0-.74.8v1.16h-.3v-1.25c0-.47-.23-.71-.64-.71a.71.71,0,0,0-.74.8v1.16h-.3V163.7h.29v.4a.88.88,0,0,1,.81-.42.79.79,0,0,1,.79.47,1,1,0,0,1,.87-.47A.84.84,0,0,1,690.76,164.63Z"/><path d="M693.51,164.9h-1.85a.81.81,0,0,0,.87.77.86.86,0,0,0,.67-.29l.17.19a1.05,1.05,0,0,1-.85.36,1.09,1.09,0,0,1-1.16-1.13,1.07,1.07,0,0,1,1.08-1.12,1.05,1.05,0,0,1,1.07,1.12Zm-1.85-.23h1.57a.77.77,0,0,0-.79-.73A.76.76,0,0,0,691.66,164.67Z"/></g><g class="b087a09f-8f4f-4aa6-a076-ce3d05c9422e"><path d="M650,155.81c0,.63-.45,1-1.2,1H648v.93h-.31V154.8h1.11C649.56,154.8,650,155.18,650,155.81Zm-.31,0c0-.47-.31-.74-.9-.74H648v1.47h.79C649.39,156.54,649.7,156.27,649.7,155.81Z"/><path d="M652.27,156.37v1.38H652v-.35a.84.84,0,0,1-.77.37c-.5,0-.8-.26-.8-.65s.22-.62.85-.62h.7v-.14c0-.38-.21-.58-.62-.58a1.13,1.13,0,0,0-.74.26l-.14-.23a1.44,1.44,0,0,1,.91-.29A.78.78,0,0,1,652.27,156.37Zm-.3.71v-.36h-.69c-.43,0-.57.17-.57.4s.21.41.56.41A.7.7,0,0,0,652,157.08Z"/><path d="M655.15,155.53v1.95a1,1,0,0,1-1.11,1.1,1.52,1.52,0,0,1-1-.34l.15-.22a1.31,1.31,0,0,0,.87.3c.56,0,.82-.26.82-.8v-.29a1,1,0,0,1-.87.43,1.07,1.07,0,1,1,0-2.14,1,1,0,0,1,.88.44v-.43Zm-.29,1.05a.79.79,0,0,0-.85-.8.78.78,0,0,0-.83.8.8.8,0,0,0,.83.82A.81.81,0,0,0,654.86,156.58Z"/><path d="M657.91,156.73h-1.85a.82.82,0,0,0,.87.77.86.86,0,0,0,.68-.29l.17.2a1.12,1.12,0,0,1-.85.36,1.1,1.1,0,0,1-1.17-1.13,1.06,1.06,0,0,1,1.09-1.12,1,1,0,0,1,1.07,1.12S657.91,156.7,657.91,156.73Zm-1.85-.22h1.57a.77.77,0,0,0-.78-.74A.78.78,0,0,0,656.06,156.51Z"/><path d="M661.67,156.46v1.29h-.3v-1.26c0-.47-.24-.71-.66-.71a.73.73,0,0,0-.78.8v1.17h-.3v-2.22h.29v.41a.93.93,0,0,1,.84-.42A.84.84,0,0,1,661.67,156.46Z"/><path d="M664.16,156.37v1.38h-.29v-.35a.82.82,0,0,1-.76.37c-.5,0-.81-.26-.81-.65s.22-.62.86-.62h.7v-.14c0-.38-.21-.58-.63-.58a1.12,1.12,0,0,0-.73.26l-.14-.23a1.39,1.39,0,0,1,.9-.29A.78.78,0,0,1,664.16,156.37Zm-.3.71v-.36h-.7c-.42,0-.56.17-.56.4s.2.41.56.41A.71.71,0,0,0,663.86,157.08Z"/><path d="M668.63,156.46v1.29h-.3v-1.26c0-.47-.24-.71-.64-.71a.72.72,0,0,0-.74.8v1.17h-.3v-1.26c0-.47-.23-.71-.64-.71a.72.72,0,0,0-.74.8v1.17H665v-2.22h.29v.41a.88.88,0,0,1,.81-.42.8.8,0,0,1,.79.46,1,1,0,0,1,.88-.46A.83.83,0,0,1,668.63,156.46Z"/><path d="M671.38,156.73h-1.85a.81.81,0,0,0,.87.77.86.86,0,0,0,.68-.29l.17.2a1.12,1.12,0,0,1-.86.36,1.09,1.09,0,0,1-1.16-1.13,1.06,1.06,0,0,1,1.08-1.12,1,1,0,0,1,1.07,1.12Zm-1.85-.22h1.57a.78.78,0,0,0-.79-.74A.77.77,0,0,0,669.53,156.51Z"/><path d="M672.51,155.38l.52.3-.1.18-.53-.31v.6h-.19v-.6l-.53.31-.1-.18.52-.3-.52-.29.1-.18.53.31v-.6h.19v.6l.53-.31.1.18Z"/></g></g><path id="a6beb8c2-1ef6-4468-b3d3-5b6d76669327" data-name="text path-3" class="ba8ef7aa-4e47-4bc7-ab87-0934a0228670" d="M757.82,193.3H647.22V193h110.6Z"/><g class="b087a09f-8f4f-4aa6-a076-ce3d05c9422e"><path d="M649.78,188.14h.3v1.12a1.64,1.64,0,0,1-1.08.38,1.5,1.5,0,1,1,0-3,1.44,1.44,0,0,1,1.09.42l-.19.2a1.22,1.22,0,0,0-.89-.35,1.23,1.23,0,1,0,0,2.45,1.32,1.32,0,0,0,.77-.23Z"/><path d="M650.83,186.7a.22.22,0,0,1,.44,0,.22.22,0,0,1-.44,0Zm.07.69h.3v2.22h-.3Z"/><path d="M653.89,187.39l-1,2.22h-.31l-1-2.22h.31l.83,1.89.84-1.89Z"/><path d="M656.18,188.6h-1.85a.81.81,0,0,0,.87.77.89.89,0,0,0,.68-.29l.16.19a1.17,1.17,0,0,1-2-.77,1.07,1.07,0,0,1,1.08-1.12,1.05,1.05,0,0,1,1.07,1.12Zm-1.85-.23h1.57a.77.77,0,0,0-.79-.73A.76.76,0,0,0,654.33,188.37Z"/><path d="M659.07,189.48a.75.75,0,0,1-.47.15A.58.58,0,0,1,658,189v-1.34h-.4v-.26h.4v-.48h.3v.48h.67v.26h-.67V189a.35.35,0,0,0,.38.4.47.47,0,0,0,.33-.11Z"/><path d="M661.65,188.33v1.28h-.3v-1.25a.62.62,0,0,0-.67-.71.72.72,0,0,0-.77.8v1.16h-.3v-3.12h.3v1.29a.94.94,0,0,1,.83-.4A.85.85,0,0,1,661.65,188.33Z"/><path d="M664.4,188.6h-1.85a.81.81,0,0,0,.87.77.89.89,0,0,0,.68-.29l.16.19a1.17,1.17,0,0,1-2-.77,1.07,1.07,0,0,1,1.08-1.12,1.05,1.05,0,0,1,1.07,1.12Zm-1.85-.23h1.57a.77.77,0,0,0-.79-.73A.76.76,0,0,0,662.55,188.37Z"/><path d="M668.36,188.5a1.07,1.07,0,0,1-1.1,1.13,1,1,0,0,1-.84-.44v1.24h-.3v-3h.29v.44a1,1,0,0,1,.85-.45A1.07,1.07,0,0,1,668.36,188.5Zm-.3,0a.83.83,0,1,0-1.65,0,.83.83,0,1,0,1.65,0Z"/><path d="M670.63,188.24v1.37h-.28v-.34a.85.85,0,0,1-.76.36c-.51,0-.81-.26-.81-.64s.22-.63.85-.63h.71v-.14c0-.37-.22-.58-.63-.58a1.13,1.13,0,0,0-.74.26l-.13-.22a1.39,1.39,0,0,1,.9-.3A.78.78,0,0,1,670.63,188.24Zm-.29.7v-.36h-.7c-.43,0-.57.17-.57.4s.21.42.56.42A.71.71,0,0,0,670.34,188.94Z"/><path d="M673.51,187.39v2a1,1,0,0,1-1.11,1.11,1.54,1.54,0,0,1-1-.34l.15-.23a1.31,1.31,0,0,0,.87.3c.56,0,.82-.25.82-.8v-.28a1,1,0,0,1-.86.43,1.07,1.07,0,0,1-1.12-1.08,1.05,1.05,0,0,1,1.12-1.07,1,1,0,0,1,.87.44v-.43Zm-.29,1.06a.8.8,0,0,0-.85-.81.81.81,0,1,0,0,1.62A.8.8,0,0,0,673.22,188.45Z"/><path d="M676.28,188.6h-1.86a.83.83,0,0,0,.87.77.89.89,0,0,0,.68-.29l.17.19a1.17,1.17,0,0,1-2-.77,1.07,1.07,0,0,1,1.09-1.12,1.05,1.05,0,0,1,1.07,1.12Zm-1.86-.23H676a.76.76,0,0,0-.78-.73A.77.77,0,0,0,674.42,188.37Z"/><path d="M679.67,188.24v1.37h-.29v-.34a.83.83,0,0,1-.76.36c-.5,0-.81-.26-.81-.64s.22-.63.86-.63h.7v-.14c0-.37-.22-.58-.63-.58a1.15,1.15,0,0,0-.74.26l-.13-.22a1.39,1.39,0,0,1,.9-.3A.79.79,0,0,1,679.67,188.24Zm-.3.7v-.36h-.7c-.43,0-.56.17-.56.4s.2.42.56.42A.71.71,0,0,0,679.37,188.94Z"/><path d="M683.61,186.49v3.12h-.29v-.44a1,1,0,0,1-.85.46,1.13,1.13,0,0,1,0-2.25,1,1,0,0,1,.84.44v-1.33Zm-.3,2a.82.82,0,1,0-1.64,0,.82.82,0,1,0,1.64,0Z"/><path d="M686.37,188.6h-1.85a.82.82,0,0,0,.87.77.89.89,0,0,0,.68-.29l.17.19a1.12,1.12,0,0,1-.86.36,1.09,1.09,0,0,1-1.16-1.13,1.08,1.08,0,1,1,2.16,0S686.37,188.56,686.37,188.6Zm-1.85-.23h1.57a.79.79,0,0,0-1.57,0Z"/><path d="M686.68,189.36l.13-.24a1.35,1.35,0,0,0,.79.25c.42,0,.6-.14.6-.36,0-.58-1.44-.12-1.44-1,0-.36.31-.63.88-.63a1.58,1.58,0,0,1,.78.2l-.13.24a1.19,1.19,0,0,0-.65-.18c-.4,0-.58.15-.58.36,0,.6,1.43.15,1.43,1,0,.38-.33.63-.91.63A1.5,1.5,0,0,1,686.68,189.36Z"/><path d="M688.82,188.5a1.09,1.09,0,0,1,1.15-1.12,1,1,0,0,1,.86.44l-.22.15a.74.74,0,0,0-.64-.33.81.81,0,0,0-.84.86.82.82,0,0,0,.84.87.74.74,0,0,0,.64-.33l.22.15a1,1,0,0,1-.86.44A1.1,1.1,0,0,1,688.82,188.5Z"/><path d="M692.54,187.38v.29h-.08a.72.72,0,0,0-.74.82v1.13h-.3v-2.22h.29v.44A.82.82,0,0,1,692.54,187.38Z"/><path d="M693,186.7a.21.21,0,0,1,.22-.21.21.21,0,0,1,.22.2.22.22,0,0,1-.22.22A.21.21,0,0,1,693,186.7Zm.07.69h.29v2.22h-.29Z"/><path d="M696.45,188.5a1.07,1.07,0,0,1-1.1,1.13,1,1,0,0,1-.84-.44v1.24h-.3v-3h.28v.44a1,1,0,0,1,.86-.45A1.07,1.07,0,0,1,696.45,188.5Zm-.3,0a.83.83,0,1,0-1.65,0,.83.83,0,1,0,1.65,0Z"/><path d="M698.23,189.48a.73.73,0,0,1-.47.15.58.58,0,0,1-.64-.64v-1.34h-.4v-.26h.4v-.48h.29v.48h.68v.26h-.68V189a.36.36,0,0,0,.39.4.49.49,0,0,0,.33-.11Z"/><path d="M698.71,186.7a.22.22,0,0,1,.44,0,.22.22,0,0,1-.44,0Zm.07.69h.29v2.22h-.29Z"/><path d="M699.69,188.5a1.13,1.13,0,1,1,1.12,1.13A1.09,1.09,0,0,1,699.69,188.5Zm1.95,0a.83.83,0,1,0-.83.87A.81.81,0,0,0,701.64,188.5Z"/><path d="M704.59,188.33v1.28h-.3v-1.25a.62.62,0,0,0-.67-.71.72.72,0,0,0-.77.8v1.16h-.3v-2.22h.29v.41a.93.93,0,0,1,.84-.42A.85.85,0,0,1,704.59,188.33Z"/></g><g class="b087a09f-8f4f-4aa6-a076-ce3d05c9422e"><path d="M647.7,178.5h1.2a1.48,1.48,0,1,1,0,2.95h-1.2Zm1.19,2.68a1.21,1.21,0,1,0,0-2.41H648v2.41Z"/><path d="M653.05,180.43H651.2a.81.81,0,0,0,.87.77.82.82,0,0,0,.67-.29l.17.2a1.17,1.17,0,0,1-2-.77,1.07,1.07,0,0,1,1.08-1.13,1.06,1.06,0,0,1,1.07,1.13Zm-1.85-.22h1.57a.77.77,0,0,0-.79-.74A.76.76,0,0,0,651.2,180.21Z"/><path d="M653.36,181.19l.13-.23a1.35,1.35,0,0,0,.79.25c.42,0,.59-.15.59-.37,0-.57-1.43-.12-1.43-1,0-.37.31-.64.87-.64a1.5,1.5,0,0,1,.79.21l-.13.24a1.21,1.21,0,0,0-.66-.19c-.4,0-.57.16-.57.37,0,.6,1.43.15,1.43,1,0,.38-.33.63-.91.63A1.44,1.44,0,0,1,653.36,181.19Z"/><path d="M655.5,180.34a1.1,1.1,0,0,1,1.14-1.13,1,1,0,0,1,.87.44l-.22.15a.76.76,0,0,0-.65-.32.86.86,0,0,0,0,1.72.76.76,0,0,0,.65-.32l.22.15a1,1,0,0,1-.87.44A1.1,1.1,0,0,1,655.5,180.34Z"/><path d="M659.21,179.21v.3h-.07a.72.72,0,0,0-.74.82v1.13h-.3v-2.22h.28v.44A.83.83,0,0,1,659.21,179.21Z"/><path d="M659.69,178.53a.21.21,0,0,1,.21-.21.21.21,0,0,1,.22.21.22.22,0,1,1-.43,0Zm.06.7h.3v2.22h-.3Z"/><path d="M663.13,180.34a1.07,1.07,0,0,1-1.1,1.13,1,1,0,0,1-.85-.44v1.23h-.29v-3h.28v.44a1,1,0,0,1,.86-.46A1.07,1.07,0,0,1,663.13,180.34Zm-.3,0a.83.83,0,1,0-1.65,0,.83.83,0,1,0,1.65,0Z"/><path d="M664.91,181.31a.71.71,0,0,1-.47.16.59.59,0,0,1-.65-.65v-1.34h-.39v-.25h.39v-.48h.3v.48h.68v.25h-.68v1.33a.36.36,0,0,0,.39.4.5.5,0,0,0,.32-.11Z"/><path d="M665.39,178.53a.21.21,0,0,1,.21-.21.21.21,0,0,1,.22.21.22.22,0,1,1-.43,0Zm.06.7h.3v2.22h-.3Z"/><path d="M666.36,180.34a1.13,1.13,0,1,1,1.13,1.13A1.09,1.09,0,0,1,666.36,180.34Zm1.95,0a.82.82,0,1,0-.82.86A.8.8,0,0,0,668.31,180.34Z"/><path d="M671.27,180.16v1.29H671v-1.26a.62.62,0,0,0-.67-.71.73.73,0,0,0-.77.8v1.17h-.3v-2.22h.28v.41a.94.94,0,0,1,.85-.43A.85.85,0,0,1,671.27,180.16Z"/></g><g id="a9e0dfbd-e59c-400a-bea3-5f2b71ef5305" data-name="Group 399"><rect id="bd3a5239-eab5-4ff4-8610-6813abdb51f7" data-name="Rectangle 169-2" class="a82c591b-1a78-429d-a998-095b8c06d1e4" x="664.08" y="206.46" width="75.84" height="13.17" rx="1.05"/><g class="b087a09f-8f4f-4aa6-a076-ce3d05c9422e"><path class="a6cca96d-65a3-4d79-ab63-769efa7f38c9" d="M682.17,211.78H681v-.57h3.13v.57h-1.22v3.11h-.69Z"/><path class="a6cca96d-65a3-4d79-ab63-769efa7f38c9" d="M686.8,214H685l-.36.85h-.71l1.66-3.68h.67l1.67,3.68h-.72Zm-.23-.54-.69-1.61-.69,1.61Z"/><path class="a6cca96d-65a3-4d79-ab63-769efa7f38c9" d="M689.62,213.35l-.58.6v.94h-.69v-3.68H689v1.89l1.82-1.89h.77l-1.55,1.64,1.64,2h-.8Z"/><path class="a6cca96d-65a3-4d79-ab63-769efa7f38c9" d="M695,214.32v.57h-2.77v-3.68h2.69v.57h-2v1h1.78v.56h-1.78v1Z"/><path class="a6cca96d-65a3-4d79-ab63-769efa7f38c9" d="M699.57,214h-1.85l-.36.85h-.7l1.65-3.68H699l1.66,3.68h-.71Zm-.23-.54-.69-1.61L698,213.5Z"/><path class="a6cca96d-65a3-4d79-ab63-769efa7f38c9" d="M702.26,214.5l.24-.53a2,2,0,0,0,1.22.4c.57,0,.81-.2.81-.48,0-.79-2.19-.27-2.19-1.64,0-.59.48-1.1,1.49-1.1a2.32,2.32,0,0,1,1.22.33l-.21.53a2.11,2.11,0,0,0-1-.29c-.57,0-.8.22-.8.5,0,.79,2.19.28,2.19,1.63,0,.59-.48,1.09-1.49,1.09A2.41,2.41,0,0,1,702.26,214.5Z"/><path class="a6cca96d-65a3-4d79-ab63-769efa7f38c9" d="M709.16,211.21v3.68h-.56l-2-2.5v2.5h-.68v-3.68h.56l2,2.49v-2.49Z"/><path class="a6cca96d-65a3-4d79-ab63-769efa7f38c9" d="M712.54,214H710.7l-.36.85h-.71l1.66-3.68H712l1.67,3.68h-.72Zm-.22-.54-.7-1.61-.69,1.61Z"/><path class="a6cca96d-65a3-4d79-ab63-769efa7f38c9" d="M717.18,212.52c0,.81-.6,1.31-1.57,1.31h-.83v1.06h-.68v-3.68h1.51C716.58,211.21,717.18,211.7,717.18,212.52Zm-.69,0c0-.47-.31-.74-.91-.74h-.8v1.47h.8C716.18,213.25,716.49,213,716.49,212.52Z"/><path class="a6cca96d-65a3-4d79-ab63-769efa7f38c9" d="M717.61,214.5l.24-.53a2,2,0,0,0,1.21.4c.58,0,.82-.2.82-.48,0-.79-2.19-.27-2.19-1.64,0-.59.47-1.1,1.48-1.1a2.33,2.33,0,0,1,1.23.33l-.21.53a2.14,2.14,0,0,0-1-.29c-.57,0-.8.22-.8.5,0,.79,2.18.28,2.18,1.63,0,.59-.47,1.09-1.49,1.09A2.4,2.4,0,0,1,717.61,214.5Z"/><path class="a6cca96d-65a3-4d79-ab63-769efa7f38c9" d="M724.51,211.21v3.68h-.69v-1.58h-1.9v1.58h-.69v-3.68h.69v1.52h1.9v-1.52Z"/><path class="a6cca96d-65a3-4d79-ab63-769efa7f38c9" d="M725.24,213.05a2,2,0,1,1,2,1.89A1.89,1.89,0,0,1,725.24,213.05Zm3.28,0a1.3,1.3,0,1,0-1.3,1.29A1.26,1.26,0,0,0,728.52,213.05Z"/><path class="a6cca96d-65a3-4d79-ab63-769efa7f38c9" d="M730.63,211.78h-1.22v-.57h3.13v.57h-1.23v3.11h-.68Z"/></g><g id="b760a1f9-c80c-499a-ac3d-6f365bd62c52" data-name="camera alt-24px"><path id="ac642da7-6bba-4fda-b317-7a9aa97c3989" data-name="Path 110" class="b219f855-98a6-4fc3-b997-e0474059fb73" d="M672,209.89h6.32v6.32H672Z"/><circle id="f8576cad-fae5-45db-90c1-9815bff02d8d" data-name="Ellipse 27" class="a82c591b-1a78-429d-a998-095b8c06d1e4" cx="675.14" cy="213.05" r="0.84"/><path id="ac904246-0fa0-4349-ac91-48b3cfa2f229" data-name="Path 111" class="a6cca96d-65a3-4d79-ab63-769efa7f38c9" d="M674.35,210.41l-.49.53H673a.53.53,0,0,0-.53.53v3.16a.52.52,0,0,0,.53.52h4.21a.52.52,0,0,0,.53-.52v-3.16a.53.53,0,0,0-.53-.53h-.83l-.48-.53Zm.79,4a1.32,1.32,0,1,1,1.31-1.31A1.32,1.32,0,0,1,675.14,214.36Z"/></g></g></g><circle class="bcc94691-0c50-4c9e-abf6-bd1fe3b092d8" cx="771.87" cy="54.67" r="17.45"/><circle class="a71657ed-4ada-4d5e-a234-cabc678fbb03" cx="771.87" cy="54.67" r="32.15"/><circle class="a71657ed-4ada-4d5e-a234-cabc678fbb03" cx="771.87" cy="54.67" r="50.67"/></g></g></svg>