<svg xmlns="http://www.w3.org/2000/svg" viewBox="0 0 412 230"><defs><style>.e6f954fc-5296-4c6c-aed2-afb07e525185{fill:#e6e6e6;}.ef464c09-6f1b-4172-a52e-acf300e2c7f3{fill:#fff;}.e231993e-1858-4a45-9b37-a551c537e16d{fill:#ccc;}.a01695e7-ffff-49c8-8c49-c63ca2c0b78e{fill:#1a1a1a;}.a23bf47c-09a2-47ec-aebf-5f919092d3c2{opacity:0.05;}.a229081c-dd19-4d30-b397-506551574c6b,.a23bf47c-09a2-47ec-aebf-5f919092d3c2{isolation:isolate;}.a229081c-dd19-4d30-b397-506551574c6b{opacity:0.1;}.b8d48a7b-1a7f-4b7f-8775-19aa7469f7ee{fill:#333;}.a0a99a30-6c2d-4f71-a120-b8ad6258e64a{fill:#999;}.f2525711-6440-49a6-896f-a48359ae2b26{fill:#666;}.e2d89d55-b06b-49e2-8956-f682ddd9d47c{fill:#b3b3b3;}.e89c8ed3-a59c-4757-920b-8b5552823cb8{fill:#01c0ad;}.a42b41f4-6ef7-49cc-9608-4173bf4381bf{fill:none;}</style></defs><g id="e6b72df2-7719-423f-b6db-4496e208851c" data-name="Layer 2"><g id="ad3f4bfa-a157-42ab-970d-2a247b8a84e4" data-name="Layer 1"><g id="be648caa-4122-4f41-8dbf-a9cec261f013" data-name="Group 459"><g id="af128d45-d052-4bc0-a0f1-065fe2942cd7" data-name="Group 30"><rect id="ae24863e-f244-4a5e-a31d-a5f57c936393" data-name="Rectangle 17" class="e6f954fc-5296-4c6c-aed2-afb07e525185" width="412" height="230"/><circle id="b4ac72b6-2c43-4363-b852-d0cf95c0c428" data-name="Ellipse 13" class="ef464c09-6f1b-4172-a52e-acf300e2c7f3" cx="12.86" cy="7.58" r="2.19"/><circle id="e5a1d330-f084-42db-92f1-e603170eafdb" data-name="Ellipse 14" class="ef464c09-6f1b-4172-a52e-acf300e2c7f3" cx="21.19" cy="7.58" r="2.19"/><circle id="ac594904-a99d-41d2-ad47-b43cb84ca1f6" data-name="Ellipse 15" class="ef464c09-6f1b-4172-a52e-acf300e2c7f3" cx="29.52" cy="7.58" r="2.19"/><rect id="aa3c7129-c865-4724-9169-f6497e075c91" data-name="Rectangle 18" class="ef464c09-6f1b-4172-a52e-acf300e2c7f3" x="10.93" y="15.03" width="389.45" height="192.96"/><path id="bb7e64db-0445-4242-8ee9-eb1225d61cde" data-name="Path 56" class="e6f954fc-5296-4c6c-aed2-afb07e525185" d="M36.58,44.22a1.37,1.37,0,0,0-1.37,1.37v69.68a1.37,1.37,0,0,0,1.37,1.38h80.47a1.38,1.38,0,0,0,1.38-1.38V45.59a1.37,1.37,0,0,0-1.38-1.37Z"/><path id="ff514f1a-a67d-4afd-adda-93a07444409f" data-name="Path 57" class="e6f954fc-5296-4c6c-aed2-afb07e525185" d="M165.55,44.44a1.38,1.38,0,0,0-1.38,1.38v69.45a1.38,1.38,0,0,0,1.38,1.38h80.21a1.37,1.37,0,0,0,1.37-1.38V45.82a1.37,1.37,0,0,0-1.37-1.38Z"/><path id="b2585dc5-9e1f-4693-a44b-8a97867c6c07" data-name="Path 58" class="e6f954fc-5296-4c6c-aed2-afb07e525185" d="M293.15,43.72a1.38,1.38,0,0,0-1.38,1.38v70.18a1.37,1.37,0,0,0,1.38,1.37h81a1.37,1.37,0,0,0,1.38-1.37V45.1a1.38,1.38,0,0,0-1.38-1.38Z"/><path id="b913e0d6-4aac-4426-afe0-cf95466c199f" data-name="Path 59" class="e6f954fc-5296-4c6c-aed2-afb07e525185" d="M38.06,150.63a2.85,2.85,0,1,0,0,5.7h75.65a2.85,2.85,0,1,0,0-5.7Z"/><path id="ea25045f-b1d7-49bb-8775-c0d69bb2b12b" data-name="Path 60" class="e6f954fc-5296-4c6c-aed2-afb07e525185" d="M38.06,164.11a2.85,2.85,0,0,0,0,5.7H72.12a2.85,2.85,0,1,0,0-5.7Z"/><path id="a20f028e-69f4-4eb3-89c0-68e8341e4a33" data-name="Path 61" class="e6f954fc-5296-4c6c-aed2-afb07e525185" d="M168.4,150.63a2.85,2.85,0,1,0,0,5.7h75.66a2.85,2.85,0,1,0,0-5.7Z"/><path id="b3d8b807-bc71-4889-8d32-2d1c7c3c49e5" data-name="Path 62" class="e6f954fc-5296-4c6c-aed2-afb07e525185" d="M168.43,164.11a2.85,2.85,0,1,0,0,5.7h34.06a2.85,2.85,0,1,0,0-5.7Z"/><path id="a8c7847e-26b2-46cb-8317-8f555dd283f0" data-name="Path 63" class="e6f954fc-5296-4c6c-aed2-afb07e525185" d="M295.49,150.63a2.85,2.85,0,0,0,0,5.7h75.65a2.85,2.85,0,1,0,0-5.7Z"/><path id="b113c109-33a3-4bf8-b8d7-aca3ef6449b0" data-name="Path 64" class="e6f954fc-5296-4c6c-aed2-afb07e525185" d="M38.06,136.71a2.85,2.85,0,0,0,0,5.7h75.65a2.85,2.85,0,1,0,0-5.7Z"/><path id="bb060b61-3e7c-467d-9fcf-d63d8b19ee11" data-name="Path 65" class="e6f954fc-5296-4c6c-aed2-afb07e525185" d="M168.4,136.71a2.85,2.85,0,0,0,0,5.7h75.66a2.85,2.85,0,0,0,0-5.7Z"/><path id="aefc154b-f1e8-46f5-8939-13be625106a1" data-name="Path 66" class="e6f954fc-5296-4c6c-aed2-afb07e525185" d="M295.49,136.71a2.85,2.85,0,0,0,0,5.7h75.65a2.85,2.85,0,1,0,0-5.7Z"/><path id="ff14c234-ff0a-4d61-ad59-7f85989f0794" data-name="Path 67" class="e6f954fc-5296-4c6c-aed2-afb07e525185" d="M295.59,164.11a2.85,2.85,0,1,0,0,5.7h34.06a2.85,2.85,0,1,0,0-5.7H295.59Z"/><path class="e231993e-1858-4a45-9b37-a551c537e16d" d="M86.38,66a.46.46,0,0,0-.21.08,10,10,0,0,0-2.76-5.24c-6,1.6-9.85.09-12.06-1.59a10,10,0,0,0-4.83,6.83A.45.45,0,0,0,66.3,66c-.39,0-.7.57-.7,1.26s.31,1.27.7,1.27c0,0,0,0,.06,0a10,10,0,0,0,4,7.43c0,.2,0,.41,0,.62v3.76a5.61,5.61,0,0,0,3.81,5.32l2.14,3.11,2.24-3.11a5.62,5.62,0,0,0,3.82-5.32V76.53a6,6,0,0,0,0-.61,10,10,0,0,0,4-7.44s0,0,.06,0c.39,0,.71-.57.71-1.27S86.77,66,86.38,66Z"/><path class="a01695e7-ffff-49c8-8c49-c63ca2c0b78e" d="M66.36,68.48s0,0-.06,0c-.39,0-.7-.57-.7-1.27s.31-1.26.7-1.26a.45.45,0,0,1,.22.08,10,10,0,0,1,4.83-6.83c2.21,1.68,6,3.19,12.06,1.59a10,10,0,0,1,2.76,5.24.46.46,0,0,1,.21-.08c.39,0,.71.57.71,1.26s-.32,1.27-.71,1.27c0,0,0,0-.06,0a9.82,9.82,0,0,1-.63,2.93,11.8,11.8,0,0,0-4.93-18.19,4.12,4.12,0,0,0,.09-.86,4,4,0,1,0-8,0,4.4,4.4,0,0,0,.05.51A11.83,11.83,0,0,0,67,71.41,10.13,10.13,0,0,1,66.36,68.48Z"/><path class="a23bf47c-09a2-47ec-aebf-5f919092d3c2" d="M76.34,77.9A9.89,9.89,0,0,1,70.44,76a2.86,2.86,0,0,0-.07.28,10.16,10.16,0,0,0,11.94,0c0-.1,0-.18-.07-.28A9.91,9.91,0,0,1,76.34,77.9Z"/><path class="ef464c09-6f1b-4172-a52e-acf300e2c7f3" d="M101.36,116.65V101.88a23,23,0,0,0-19-22.63v1a5.62,5.62,0,0,1-3.82,5.32l-2.24,3.11-2.14-3.11a5.61,5.61,0,0,1-3.81-5.32v-.85a23,23,0,0,0-18.06,22.44v14.77Z"/><path class="a229081c-dd19-4d30-b397-506551574c6b" d="M92.37,116.65C92.22,109.15,91,97.28,91,97.28l.65,19.37Z"/><path class="a229081c-dd19-4d30-b397-506551574c6b" d="M60.88,116.65l.65-19.37s-1.19,11.87-1.34,19.37Z"/><path class="b8d48a7b-1a7f-4b7f-8775-19aa7469f7ee" d="M230.2,116.65V101.88a23,23,0,0,0-23-23h-3.14a23,23,0,0,0-23,23v14.77Z"/><path d="M195.19,68.49l-.05,0c-.39,0-.7-.57-.7-1.27s.31-1.26.7-1.26a.46.46,0,0,1,.21.08A10,10,0,0,1,199,60l.62.76s8.79.79,11.61-.83A10,10,0,0,1,215,66.06a.49.49,0,0,1,.23-.08c.39,0,.7.57.7,1.26s-.31,1.27-.7,1.27a.15.15,0,0,1-.07,0,10,10,0,0,1-.64,3,11.83,11.83,0,1,0-18.68,0A10,10,0,0,1,195.19,68.49Z"/><path class="a0a99a30-6c2d-4f71-a120-b8ad6258e64a" d="M215.22,66a.49.49,0,0,0-.23.08A10,10,0,0,0,211.24,60c-2.82,1.62-11.61.83-11.61.83L199,60a10,10,0,0,0-3.66,6,.46.46,0,0,0-.21-.08c-.39,0-.7.57-.7,1.26s.31,1.27.7,1.27l.05,0a10,10,0,0,0,4,7.43,6.08,6.08,0,0,0,0,.61v3.76a5.63,5.63,0,0,0,3.8,5.32l2.14,3.11,2.25-3.11a5.62,5.62,0,0,0,3.82-5.32V76.53a4.21,4.21,0,0,0,0-.62,10,10,0,0,0,4-7.43s0,0,.07,0c.39,0,.7-.57.7-1.27S215.61,66,215.22,66Z"/><polygon class="a23bf47c-09a2-47ec-aebf-5f919092d3c2" points="195 81.56 199.03 90.19 203.03 86.2 199.03 80.06 195 81.56"/><polygon class="a23bf47c-09a2-47ec-aebf-5f919092d3c2" points="215.36 81.14 211.32 90.19 207.31 86.2 211.43 79.74 215.36 81.14"/><path class="ef464c09-6f1b-4172-a52e-acf300e2c7f3" d="M195.14,81.14l4,8.63,4-4-4-6.13-1.84.56a3.5,3.5,0,0,0-.54.2Z"/><path class="ef464c09-6f1b-4172-a52e-acf300e2c7f3" d="M215.22,80.72l-4,9-4-4,4.12-6.46.75.22a18.48,18.48,0,0,1,2.4.85Z"/><path class="a229081c-dd19-4d30-b397-506551574c6b" d="M189.72,116.65l.64-19.36s-1.19,11.86-1.34,19.36Z"/><path class="a229081c-dd19-4d30-b397-506551574c6b" d="M221.2,116.65c-.15-7.5-1.34-19.36-1.34-19.36l.64,19.36Z"/><path class="f2525711-6440-49a6-896f-a48359ae2b26" d="M343.22,66A.43.43,0,0,0,343,66c0-.16-.05-.32-.08-.48a1.17,1.17,0,0,1-1.18-.11c-.91-1.42-1.18-3.16-2-4.63a5.84,5.84,0,0,0-.56-.84c-2.7,1.46-10.38.88-11.39.8-.1.17-.19.34-.28.52a15.55,15.55,0,0,1-1.25,2.8c-.49.64-1.85,1.66-2.77,1.46,0,.15-.05.32-.08.47a.44.44,0,0,0-.22-.07c-.38,0-.7.56-.7,1.26s.32,1.26.7,1.26l.05,0a9.94,9.94,0,0,0,4,7.41c0,.21,0,.41,0,.62v3.75a5.6,5.6,0,0,0,2.92,4.92l3,4.35,3.12-4.32a5.61,5.61,0,0,0,3-5V76.49c0-.21,0-.42,0-.62a9.94,9.94,0,0,0,4-7.42l.07,0c.39,0,.7-.57.7-1.26S343.61,66,343.22,66Z"/><path class="a23bf47c-09a2-47ec-aebf-5f919092d3c2" d="M333.19,77.86a9.93,9.93,0,0,1-5.86-1.92l-.06.22a10,10,0,0,0,11.84,0c0-.08,0-.15-.05-.22A9.94,9.94,0,0,1,333.19,77.86Z"/><path class="e2d89d55-b06b-49e2-8956-f682ddd9d47c" d="M358.17,116.66V101.79a22.94,22.94,0,0,0-19-22.59v1a5.61,5.61,0,0,1-3,5l-3.12,4.32-3-4.35a5.6,5.6,0,0,1-2.92-4.92v-.85a22.92,22.92,0,0,0-18,22.4v14.87Z"/><path class="a229081c-dd19-4d30-b397-506551574c6b" d="M349.2,116.66c-.14-7.48-1.35-19.45-1.35-19.45l.65,19.45Z"/><path class="a229081c-dd19-4d30-b397-506551574c6b" d="M317.77,116.66l.64-19.45s-1.2,12-1.34,19.45Z"/><polygon class="ef464c09-6f1b-4172-a52e-acf300e2c7f3" points="336.37 116.66 335.7 85.92 333.1 89.51 330.68 85.98 330.68 116.66 336.37 116.66"/><path class="b8d48a7b-1a7f-4b7f-8775-19aa7469f7ee" d="M323.23,68.46l-.05,0c-.38,0-.7-.57-.7-1.26s.32-1.26.7-1.26a.44.44,0,0,1,.22.07c0-.15.05-.32.08-.47.92.2,2.28-.82,2.77-1.46a15.55,15.55,0,0,0,1.25-2.8c.09-.18.18-.35.28-.52,1,.08,8.69.66,11.39-.8a5.84,5.84,0,0,1,.56.84c.82,1.47,1.09,3.21,2,4.63a1.17,1.17,0,0,0,1.18.11c0,.16,0,.32.08.48a.43.43,0,0,1,.23-.08c.39,0,.7.56.7,1.26s-.31,1.26-.7,1.26l-.07,0a9.65,9.65,0,0,1-.64,3,11.81,11.81,0,1,0-18.64,0A9.89,9.89,0,0,1,323.23,68.46Z"/></g><g id="b4e990c7-eed6-438a-b02a-3b9af54ee6dc" data-name="Group 337"><circle id="aae4328f-4db6-433d-b9b2-364ef824c947" data-name="Ellipse 16" class="e89c8ed3-a59c-4757-920b-8b5552823cb8" cx="372" cy="40" r="20"/><g id="a3460f7e-a81e-40bd-a3d6-29d1c4b8604d" data-name="add-black-18dp"><path id="af6d7e29-4721-4a6d-8e5e-f28f5e25fc9a" data-name="Path 72" class="a42b41f4-6ef7-49cc-9608-4173bf4381bf" d="M360,28h24V52H360Z"/><path id="ecc04460-8210-4692-a29c-a99706882977" data-name="Path 73" class="ef464c09-6f1b-4172-a52e-acf300e2c7f3" d="M379,41h-6v6h-2V41h-6V39h6V33h2v6h6Z"/></g></g></g></g></g></svg>