<svg xmlns="http://www.w3.org/2000/svg" viewBox="0 0 412 230"><defs><style>.ab084d6f-c1dd-4959-b6cf-68f4c43833ec{fill:#e6e6e6;}.f3a5a214-d87b-460e-b935-7467a606a3d6{fill:#fff;}.b2ab4004-bab6-4306-91b6-dcc63e5de1b7{fill:#01c0ad;}.bbb33075-f321-4a3b-b76d-25b84259c860{fill:none;}</style></defs><g id="b4557887-5bbe-469e-b618-217e2e40b3f3" data-name="Layer 2"><g id="b84f8717-9a40-42f1-9c64-73b387431a39" data-name="Layer 1"><g id="e18604c3-ce13-41d8-810b-4b6a05f39eac" data-name="Group 459"><g id="e8dff446-7b9d-4305-b5eb-512281adea50" data-name="Group 30"><rect id="efa77e02-371f-4cc1-b769-90458ed3552f" data-name="Rectangle 17" class="ab084d6f-c1dd-4959-b6cf-68f4c43833ec" width="412" height="230"/><circle id="f90ee3ec-1f5e-45cc-a2d6-1622d3d2da2d" data-name="Ellipse 13" class="f3a5a214-d87b-460e-b935-7467a606a3d6" cx="12.86" cy="7.58" r="2.19"/><circle id="a8c3d54a-6a50-4553-a895-20a7eb75fd63" data-name="Ellipse 14" class="f3a5a214-d87b-460e-b935-7467a606a3d6" cx="21.19" cy="7.58" r="2.19"/><circle id="a61a7e1a-7aa5-4fff-a3ee-d47e2402dd63" data-name="Ellipse 15" class="f3a5a214-d87b-460e-b935-7467a606a3d6" cx="29.52" cy="7.58" r="2.19"/><rect id="aa83db8f-f0f0-49a1-9662-2a0cc43a7d8a" data-name="Rectangle 18" class="f3a5a214-d87b-460e-b935-7467a606a3d6" x="10.67" y="15.03" width="389.45" height="192.96"/><path id="afd381d0-5260-4e29-a41f-c757e1333782" data-name="Path 56" class="ab084d6f-c1dd-4959-b6cf-68f4c43833ec" d="M36.58,44.22a1.37,1.37,0,0,0-1.37,1.37v69.68a1.37,1.37,0,0,0,1.37,1.38h80.47a1.38,1.38,0,0,0,1.38-1.38V45.59a1.37,1.37,0,0,0-1.38-1.37Z"/><path id="b9763c68-464c-452f-ac90-779a2eb02da6" data-name="Path 57" class="ab084d6f-c1dd-4959-b6cf-68f4c43833ec" d="M165.55,44.44a1.38,1.38,0,0,0-1.38,1.38v69.45a1.38,1.38,0,0,0,1.38,1.38h80.21a1.37,1.37,0,0,0,1.37-1.38V45.82a1.37,1.37,0,0,0-1.37-1.38Z"/><path id="aa48fa60-935c-4927-a3bc-03b580d7ef5d" data-name="Path 58" class="ab084d6f-c1dd-4959-b6cf-68f4c43833ec" d="M293.15,43.72a1.38,1.38,0,0,0-1.38,1.38v70.18a1.37,1.37,0,0,0,1.38,1.37h81a1.37,1.37,0,0,0,1.38-1.37V45.1a1.38,1.38,0,0,0-1.38-1.38Z"/><path id="a05b6575-344d-4e74-8f00-4b28bc95da61" data-name="Path 59" class="ab084d6f-c1dd-4959-b6cf-68f4c43833ec" d="M38.06,150.63a2.85,2.85,0,1,0,0,5.7h75.65a2.85,2.85,0,1,0,0-5.7Z"/><path id="bea8a03c-7997-486a-878e-cfed2b06008a" data-name="Path 60" class="ab084d6f-c1dd-4959-b6cf-68f4c43833ec" d="M38.06,164.11a2.85,2.85,0,0,0,0,5.7H72.12a2.85,2.85,0,1,0,0-5.7Z"/><path id="b5c5be9a-3f42-4e83-b235-290e38fcb9d2" data-name="Path 61" class="ab084d6f-c1dd-4959-b6cf-68f4c43833ec" d="M168.4,150.63a2.85,2.85,0,1,0,0,5.7h75.66a2.85,2.85,0,1,0,0-5.7Z"/><path id="e7df7c9e-45da-4d5b-8272-49d0d420738a" data-name="Path 62" class="ab084d6f-c1dd-4959-b6cf-68f4c43833ec" d="M168.43,164.11a2.85,2.85,0,1,0,0,5.7h34.06a2.85,2.85,0,1,0,0-5.7Z"/><path id="ec8fe10c-9cd0-4ac4-a33b-23aa1c145a0c" data-name="Path 63" class="ab084d6f-c1dd-4959-b6cf-68f4c43833ec" d="M295.49,150.63a2.85,2.85,0,0,0,0,5.7h75.65a2.85,2.85,0,1,0,0-5.7Z"/><path id="e12a6a81-00e5-4501-a903-d20a12d0b890" data-name="Path 64" class="ab084d6f-c1dd-4959-b6cf-68f4c43833ec" d="M38.06,136.71a2.85,2.85,0,0,0,0,5.7h75.65a2.85,2.85,0,1,0,0-5.7Z"/><path id="e87f8076-64ec-49b9-aead-209e20912652" data-name="Path 65" class="ab084d6f-c1dd-4959-b6cf-68f4c43833ec" d="M168.4,136.71a2.85,2.85,0,0,0,0,5.7h75.66a2.85,2.85,0,0,0,0-5.7Z"/><path id="aec4f29c-2f5e-45b1-ad8f-1f2e0856ce98" data-name="Path 66" class="ab084d6f-c1dd-4959-b6cf-68f4c43833ec" d="M295.49,136.71a2.85,2.85,0,0,0,0,5.7h75.65a2.85,2.85,0,1,0,0-5.7Z"/><path id="bf7d9401-4000-4b48-83ad-f0ca2904968a" data-name="Path 67" class="ab084d6f-c1dd-4959-b6cf-68f4c43833ec" d="M295.59,164.11a2.85,2.85,0,1,0,0,5.7h34.06a2.85,2.85,0,1,0,0-5.7H295.59Z"/></g><g id="ea03d2e4-182a-4adc-85ff-03638be19bba" data-name="Group 337"><circle id="addadc66-e654-4570-9b62-dba33dcf533a" data-name="Ellipse 16" class="b2ab4004-bab6-4306-91b6-dcc63e5de1b7" cx="372" cy="40" r="20"/><g id="b93c7463-0244-47f6-b2d4-78068d58cbc0" data-name="add-black-18dp"><path id="a1fcf289-2aee-475b-9328-1d11fdc1cf7d" data-name="Path 72" class="bbb33075-f321-4a3b-b76d-25b84259c860" d="M360,28h24V52H360Z"/><path id="e50f76f1-87c8-4e10-b5dd-d839e2342fd0" data-name="Path 73" class="f3a5a214-d87b-460e-b935-7467a606a3d6" d="M379,41h-6v6h-2V41h-6V39h6V33h2v6h6Z"/></g></g></g></g></g></svg>