<svg xmlns="http://www.w3.org/2000/svg" viewBox="0 0 138.6 33.98"><defs><style>.a{fill:#fff;}</style></defs><path class="a" d="M3.13,15.66c1.51.43,2.09,1.44,2.09,3.53v7c0,1.91,1,2.7,3.6,2.7v2.34h-1c-3.63,0-5.15-1.22-5.15-4.25V19c0-1.52-.54-2.16-1.72-2.16H0V14.47H.94c1.18,0,1.72-.68,1.72-2.2v-8C2.66,1.22,4.18,0,7.81,0h1V2.34c-2.59,0-3.6.83-3.6,2.7v7.09C5.22,14.18,4.64,15.19,3.13,15.66Z"/><path class="a" d="M26,7.38l4.32,13.86L34.52,7.38H40L44.2,21.24,48.45,7.38h5.47L46.87,26.74H41.32L37.15,14,33,26.74H27.47L20.38,7.42Z"/><path class="a" d="M74.84,0v26.7H69.33V23.9A7.06,7.06,0,0,1,63.21,27c-5.5,0-9.14-4-9.14-10s3.6-9.83,9-9.83a7.27,7.27,0,0,1,6.26,3.06V0ZM69.33,17.13c0-3.16-2-5.36-4.82-5.36s-4.86,2.23-4.9,5.36,2,5.37,4.9,5.37S69.33,20.3,69.33,17.13Z"/><path class="a" d="M82.69,34a7.8,7.8,0,0,1-5.25-1.87l2.34-4a3.76,3.76,0,0,0,2.51,1.05,2.69,2.69,0,0,0,2.56-1.73l.54-1.08-8-19h5.73L88.16,20.7,92.73,7.38h5.55L89.78,28.9C88.41,32.32,86,34,82.69,34Z"/><path class="a" d="M106.74,11.19c-1.3,0-2.23.44-2.23,1.44,0,2.92,10.22,1.44,10.18,8.28,0,4-3.49,6.05-7.88,6.05a13.57,13.57,0,0,1-8.39-2.7l1.8-3.74A11.67,11.67,0,0,0,107,22.93c1.41,0,2.45-.47,2.45-1.51,0-3.1-10-1.44-10-8.25,0-4,3.42-6,7.63-6a14.44,14.44,0,0,1,7.56,2.16l-1.91,3.78A13.07,13.07,0,0,0,106.74,11.19Z"/><path class="a" d="M138.6,14.47v2.38h-.94c-1.19,0-1.73.64-1.73,2.16v8c0,3-1.51,4.25-5.14,4.25h-1V28.94c2.59,0,3.6-.79,3.6-2.7v-7c0-2.09.57-3.1,2.09-3.53-1.52-.47-2.09-1.48-2.09-3.53V5c0-1.87-1-2.7-3.6-2.7V0h1c3.63,0,5.14,1.22,5.14,4.25v8c0,1.52.54,2.2,1.73,2.2Z"/></svg>