<svg xmlns="http://www.w3.org/2000/svg" viewBox="0 0 532.13 622.3"><defs><style>.b7738904-7da5-40f1-92a0-f7fe6bc4971e{fill:#83a4d4;opacity:0.3;}.aec97873-8321-4136-bd32-a1d71926b2b3{fill:#01c0ad;}.a2b431d0-1a57-4b8e-a707-20c3ca17403b{fill:#2f2e41;}.ae576544-7915-443a-8e73-0fa6abc8a10e,.f0d6f743-0be7-468f-a04e-f2b24cf32807{fill:#3f3d56;}.b21880c2-becf-44fc-84fe-c6dc7af11383{fill:#a0616a;}.f0d6f743-0be7-468f-a04e-f2b24cf32807{opacity:0.8;isolation:isolate;}.ee505aa8-05ff-43b0-bc49-6e3a5c7a4c42{fill:#f2f2f2;}.f1d044a8-0b2e-4517-9bdd-0a23adadf1b7{fill:#4ac29a;}</style></defs><g id="b217be81-3370-40a0-ac8a-37bb26db07b9" data-name="Layer 2"><g id="e26a1270-97b9-4054-be24-f9f9bbebad9c" data-name="Layer 1"><path id="b3c12fb8-ca25-41f3-898d-2b679f7656c7" data-name="Path 16" class="b7738904-7da5-40f1-92a0-f7fe6bc4971e" d="M246.42,511.7c-51,17.78-280.77-233-183.82-404.52C100.22,40.63,178.09,1.82,250.37.06,423-4.12,553.86,203.25,519.17,270.61c-28.33,55-158.7.12-228.39,83.22C236.37,418.71,274,502.09,246.42,511.7Z"/><g id="f9e89535-af0d-4b66-9a15-5346cc5b14bb" data-name="Group 6"><path class="aec97873-8321-4136-bd32-a1d71926b2b3" d="M437.3,421.86v-.27S432.65,396,400.05,403c0,0-20.95-4.65-19.79-15.13s2.33-17.46,2.33-17.46,17.33-8.1-7.63-5.22S328.45,357,328.45,357s-7.56-7.57-8.73.58,3.5,23.28-22.12,25.61-48.89-4.66-58.2,12.81a20.62,20.62,0,0,0-1.13,2.56s-113,83.59-117.62,106.87,22.12,36.09,22.12,36.09l101.28,47.73,10.48-27.94L206.8,536.84s3.49-7-10.48-8.15-16.3-16.3-16.3-16.3S208,469.32,223.1,478.63a106.64,106.64,0,0,1,11.5,8.08l.14,2.4S252.2,552,266.17,561.29s136.21-3.49,136.21-3.49l34.24-61.63L449,494.94l25.61,25.61-51.22,5.82-5.83,29.1s88.48,7,111.76-17.46C548.18,518.16,468.11,447.68,437.3,421.86Z"/><path class="a2b431d0-1a57-4b8e-a707-20c3ca17403b" d="M425.85,330.09A23.27,23.27,0,0,0,412.62,325a68.67,68.67,0,0,0-53.9-111.24c-.71,0-1.42,0-2.13.06A68.67,68.67,0,0,0,307,333.73c.59.52,1.19,1,1.78,1.5a68.67,68.67,0,0,1-4-95.38c.12-.14.26-.27.38-.41A68.69,68.69,0,0,0,379.25,348a23.81,23.81,0,0,0-.22,3.18,23.39,23.39,0,1,0,30.33-22.34l.35-.38A23.38,23.38,0,0,1,429.51,363,23.38,23.38,0,0,0,425.85,330.09Z"/><path id="b889d153-b840-4abf-9549-1a40b53efaf8" data-name="Path 22" class="a2b431d0-1a57-4b8e-a707-20c3ca17403b" d="M263.84,382s12.8,23.28,8.15,52.39,14,101.28,14,101.28l14-3.49s-9.32-60.54-7-74.51S295.27,389,283.63,382,263.84,382,263.84,382Z"/><path id="f1450812-9b48-4796-bd51-a2f395123372" data-name="Path 23" class="a2b431d0-1a57-4b8e-a707-20c3ca17403b" d="M399.23,406.2l4.9,128.9,9.31,5.82s13.39-141.45,6.4-141.45H405.63a6.41,6.41,0,0,0-6.41,6.4C399.22,406,399.23,406.1,399.23,406.2Z"/><path class="ae576544-7915-443a-8e73-0fa6abc8a10e" d="M477.74,601.13h-7.51a7.25,7.25,0,0,0,.27-1.93V452.77a7.23,7.23,0,0,0-7.23-7.23H356.34v-2.2H307.85v2.2H200.47a7.23,7.23,0,0,0-7.23,7.23V599.2a7.33,7.33,0,0,0,.27,1.94h-2.67a8.62,8.62,0,0,0-8.62,8.63v3.9a8.61,8.61,0,0,0,.59,3.13,8.88,8.88,0,0,0,.62,1.28,8.64,8.64,0,0,0,7.42,4.22H477.74a8.64,8.64,0,0,0,7.42-4.22,8.88,8.88,0,0,0,.62-1.28,8.61,8.61,0,0,0,.59-3.13v-3.92A8.63,8.63,0,0,0,477.74,601.13Z"/><path class="b21880c2-becf-44fc-84fe-c6dc7af11383" d="M313.32,303.43a2.11,2.11,0,0,0,.7-.13c-.07,1-.12,2-.12,3a44.12,44.12,0,0,0,14.23,32.49c.29,5.73.47,12.13.32,18.15h0S350,368,375,365.15h0a114.72,114.72,0,0,1,1.73-18.65,44.25,44.25,0,0,0,25.69-40.16c0-1-.05-2-.11-3a2,2,0,0,0,.69.13c1.93,0,3.49-2.87,3.49-6.41s-1.56-6.4-3.49-6.4c-1.07,0-2,.88-2.67,2.27a44,44,0,0,0-3.15-7.43v9.82h-7.21l-5.59-14,2.79,14H341.84l1.75-14-13,14H320.31V283.41a43.73,43.73,0,0,0-4.32,9.48c-.64-1.39-1.6-2.27-2.67-2.27-1.93,0-3.49,2.87-3.49,6.4S311.39,303.43,313.32,303.43Z"/></g><g id="bec1e0c7-d0f2-4289-a6bd-a477ebfeb671" data-name="Group 17"><path id="b03ca404-14ce-4af4-bcaf-21a5156c3c4d" data-name="Path 33" class="f0d6f743-0be7-468f-a04e-f2b24cf32807" d="M11.36,219.19C-16.09,160.44,8.71,76.77,58.94,40.56,150.62-25.52,326.4,67.05,330.31,144.71c3.23,64.14-110.56,122.19-182.26,136.38-45.76,9.05-71-.42-82.18-5.7C29.61,258.27,14.23,225.35,11.36,219.19Z"/><path class="ee505aa8-05ff-43b0-bc49-6e3a5c7a4c42" d="M137.32,111.72c0,1-.46,1.9-1,1.9H51.63c-.57,0-1-.85-1-1.9s.46-1.9,1-1.9h84.66C136.86,109.82,137.32,110.66,137.32,111.72Zm92.27.2c0-1-.47-1.9-1-1.9H143.89c-.56,0-1,.85-1,1.9s.46,1.9,1,1.9h84.67C229.12,113.82,229.59,113,229.59,111.92ZM51.22,91h84.66c.56,0,1-.84,1-1.89s-.46-1.9-1-1.9H51.21c-.56,0-1,.85-1,1.9S50.65,91,51.22,91Zm99.66.21h24.25c.57,0,1-.85,1-1.9s-.46-1.9-1-1.9H150.88c-.57,0-1,.85-1,1.9S150.31,91.22,150.88,91.22Zm-99,29.9c-.57,0-1,.9-1,2s.46,2,1,2H136.5c.56,0,1-.9,1-2s-.46-2-1-2Zm99.05,4h24.25c.57,0,1-.9,1-2s-.46-2-1-2H150.88c-.57,0-1,.9-1,2S150.31,125.12,150.88,125.12Zm-13.15,9.2c0-1-.46-1.9-1-1.9H52c-.57,0-1,.85-1,1.9s.46,1.9,1,1.9H136.7C137.27,136.22,137.73,135.37,137.73,134.32ZM150.88,136h24.26c.56,0,1-.86,1-1.9s-.46-1.9-1-1.9H150.87c-.56,0-1,.86-1,1.9S150.31,136,150.88,136Zm40.69-3.79c-.57,0-1,.85-1,1.89s.46,1.9,1,1.9h24.26c.56,0,1-.85,1-1.9s-.46-1.89-1-1.89Zm-97.2-31.7c0,1.1.46,2,1,2H228.56c.56,0,1-.9,1-2s-.47-2-1-2H95.4C94.83,98.52,94.37,99.42,94.37,100.52Zm-43.36,2H75.26c.57,0,1-.9,1-2s-.46-2-1-2H51c-.57,0-1,.9-1,2S50.44,102.52,51,102.52Zm86,104.63c0-1.1-.46-2-1-2H51.32c-.57,0-1,.9-1,2s.46,2,1,2H136C136.55,209.15,137,208.25,137,207.15Zm-1.23,31.9H51.11c-.56,0-1,.9-1,2s.46,2,1,2h84.67c.56,0,1-.9,1-2S136.34,239.05,135.78,239.05Zm36.16,0H147.7c-.57,0-1,.9-1,2s.46,2,1,2h24.24c.57,0,1-.9,1-2S172.51,239.05,171.94,239.05Zm-121-7.5h84.66c.57,0,1-.85,1-1.9s-.46-1.9-1-1.9H50.91c-.57,0-1,.85-1,1.9S50.34,231.55,50.91,231.55Zm121-3.6H147.7c-.57,0-1,.85-1,1.9s.46,1.9,1,1.9h24.24c.57,0,1-.85,1-1.9S172.51,228,171.94,228Zm40.69,0H188.38c-.56,0-1,.85-1,1.9s.46,1.9,1,1.9h24.25c.57,0,1-.85,1-1.9S213.2,228,212.63,228Zm16-11.5H95.5c-.57,0-1,.9-1,2s.46,2,1,2H228.66c.57,0,1-.9,1-2S229.23,216.45,228.66,216.45Zm-177.55,0c-.56,0-1,.9-1,2s.46,2,1,2H75.36c.57,0,1-.9,1-2s-.46-2-1-2Z"/><path class="f1d044a8-0b2e-4517-9bdd-0a23adadf1b7" d="M74.9,174.42c1.34.43,2,1.26,2,3.31v7.88c0,1.8.87,2.81,2.67,2.81h.9v2.84H78.86c-3.6,0-5.43-1.83-5.43-5.32v-8.28c0-1.26-.61-1.8-1.62-1.8H70.55V173h1.26c1,0,1.62-.54,1.62-1.8V162.9c0-3.49,1.83-5.33,5.43-5.33h1.59v2.84h-.9c-1.8,0-2.67,1-2.67,2.81v7.88C76.88,173.16,76.24,174,74.9,174.42Zm49.61-9.51-7,19.37h-5.4l-4.36-12-4.49,12h-5.4l-7-19.37h5.29L100.72,178l4.75-13.11h4.75L114.83,178l4.71-13.11Zm21.82-7.34v26.71H141v-2.23a7.44,7.44,0,0,1-6,2.52c-5.48,0-9.69-3.89-9.69-10s4.21-10,9.69-10a7.41,7.41,0,0,1,5.79,2.34v-9.4Zm-5.51,17c0-3.35-2.16-5.37-4.93-5.37s-5,2-5,5.37,2.16,5.36,5,5.36S140.82,177.94,140.82,174.6Zm29.91-9.69L162,185.47c-1.87,4.68-4.54,6.08-8,6.08a8.63,8.63,0,0,1-5.4-1.76l2.05-4a5,5,0,0,0,3.17,1.22c1.55,0,2.41-.68,3.17-2.41l.07-.18-8.39-19.51h5.8l5.43,13.14,5.47-13.14Zm.15,17.57,1.87-4a13.32,13.32,0,0,0,6.73,1.87c2.59,0,3.57-.68,3.57-1.76,0-3.17-11.7.07-11.7-7.67,0-3.67,3.31-6.26,9-6.26a15.91,15.91,0,0,1,7.45,1.69l-1.87,4a11.14,11.14,0,0,0-5.58-1.44c-2.52,0-3.6.79-3.6,1.8,0,3.31,11.7.11,11.7,7.74,0,3.6-3.35,6.16-9.14,6.16A16.6,16.6,0,0,1,170.88,182.48Zm38.63-9.5v2.88h-1.23c-1,0-1.58.54-1.58,1.8v8.28c0,3.49-1.87,5.32-5.47,5.32h-1.59v-2.84h.87c1.87,0,2.73-1,2.73-2.81v-7.88c0-2,.62-2.88,1.95-3.31-1.33-.44-1.95-1.26-1.95-3.32v-7.88c0-1.8-.86-2.81-2.73-2.81h-.87v-2.84h1.59c3.6,0,5.47,1.84,5.47,5.33v8.28c0,1.26.61,1.8,1.58,1.8Z"/><g id="abf73dcb-faff-4604-9ab1-e113bf076f98" data-name="Group 19"><circle id="a676caca-9973-4b84-bc9e-3ef5365084ad" data-name="Ellipse 10" class="f1d044a8-0b2e-4517-9bdd-0a23adadf1b7" cx="54.38" cy="62.35" r="4.5"/><circle id="e39f3e34-c07c-4113-b43e-225ec16b65e8" data-name="Ellipse 11" class="f1d044a8-0b2e-4517-9bdd-0a23adadf1b7" cx="66.38" cy="62.35" r="4.5"/><circle id="b94658ae-914e-46a0-bb68-1fa128ecf067" data-name="Ellipse 12" class="f1d044a8-0b2e-4517-9bdd-0a23adadf1b7" cx="78.38" cy="62.35" r="4.5"/></g></g></g></g></svg>