<svg xmlns="http://www.w3.org/2000/svg" xmlns:xlink="http://www.w3.org/1999/xlink" viewBox="0 0 600 533.98"><defs><style>.a1982f67-1950-4a16-aed1-a87625c91f90{fill:#f2f2f2;}.f3caef93-411d-4ac2-a8c4-630c8e109ca3{fill:#3f3d56;}.fb9ddad4-7068-4640-98c3-281e72c0667e{opacity:0.1;}.e766c9c9-90cb-4c7f-b6e9-ad1e22f49cdd,.fb9ddad4-7068-4640-98c3-281e72c0667e{isolation:isolate;}.f622d6b4-f0fe-4c66-8133-04d6b291e860{fill:#4ac29a;}.ab9b5386-2865-4c65-8d68-430473f84433{fill:#fff;}.a8f8fd22-beb1-4a00-9365-5d9a2c80a4b1{fill:#01c0ad;}.bc81e92a-000d-4cdd-a501-91668c8e4394{opacity:0.5;}.e766c9c9-90cb-4c7f-b6e9-ad1e22f49cdd{fill:none;stroke:#3f3d56;stroke-linecap:round;stroke-miterlimit:10;stroke-width:0.73px;opacity:0.7;}.bdcbc624-52f6-45a2-bc70-88bcebab0896{fill:#fbbebe;}.a4d8c7f2-47ed-48b3-8605-7940b8a0fbd9{fill:url(#a97ed0dc-39b8-4480-945c-a93c2c697421);}.afab078a-cf8d-4190-a46a-a606c2cdeeef{fill:#434175;}</style><linearGradient id="a97ed0dc-39b8-4480-945c-a93c2c697421" x1="9784.36" y1="10343.38" x2="9784.36" y2="10630.6" gradientTransform="translate(10234.54 10804.54) rotate(180)" gradientUnits="userSpaceOnUse"><stop offset="0" stop-color="gray" stop-opacity="0.25"/><stop offset="0.54" stop-color="gray" stop-opacity="0.12"/><stop offset="1" stop-color="gray" stop-opacity="0.1"/></linearGradient></defs><g id="b09e927b-2206-4582-b8bc-0ec50d484b0c" data-name="Layer 2"><g id="ab213c1f-cf61-4f15-b09b-1f4c25624546" data-name="Layer 1"><path class="a1982f67-1950-4a16-aed1-a87625c91f90" d="M52.45,85.44C159-48.27,368.94,5.26,457.07,44.22,490.44,59,596.73,105.94,599.93,175.57S497.7,278.83,503.09,370.21c2.79,47.32,31,65.69,19.17,97.8-19.74,53.59-120.33,62.09-145.73,64.24C347.62,534.69,120.92,553,32.32,380.76-13.12,292.4-14.33,169.27,52.45,85.44Z"/><rect class="f3caef93-411d-4ac2-a8c4-630c8e109ca3" x="389.31" y="89.63" width="100.03" height="26.1" rx="13.05"/><path class="fb9ddad4-7068-4640-98c3-281e72c0667e" d="M404.51,94h69.62a8.69,8.69,0,0,1,8.69,8.69h0a8.69,8.69,0,0,1-8.69,8.68H404.51a8.68,8.68,0,0,1-8.68-8.68h0A8.69,8.69,0,0,1,404.51,94Z"/><rect class="f622d6b4-f0fe-4c66-8133-04d6b291e860" x="449.23" y="94.94" width="31.41" height="15.47" rx="7.73"/><circle class="ab9b5386-2865-4c65-8d68-430473f84433" cx="464.69" cy="102.68" r="4.83"/><rect class="a8f8fd22-beb1-4a00-9365-5d9a2c80a4b1" x="85.82" y="73.2" width="58.47" height="15.47" rx="7.73"/><rect class="a8f8fd22-beb1-4a00-9365-5d9a2c80a4b1" x="85.82" y="94.94" width="162.38" height="15.47" rx="7.73"/><rect class="a8f8fd22-beb1-4a00-9365-5d9a2c80a4b1" x="85.82" y="116.7" width="162.38" height="15.47" rx="7.73"/><g class="bc81e92a-000d-4cdd-a501-91668c8e4394"><rect class="a8f8fd22-beb1-4a00-9365-5d9a2c80a4b1" x="85.82" y="159.22" width="58.47" height="15.47" rx="7.73"/><rect class="a8f8fd22-beb1-4a00-9365-5d9a2c80a4b1" x="85.82" y="180.97" width="121.2" height="15.47" rx="7.73"/><rect class="a8f8fd22-beb1-4a00-9365-5d9a2c80a4b1" x="85.82" y="202.71" width="162.38" height="15.47" rx="7.73"/></g><rect class="a8f8fd22-beb1-4a00-9365-5d9a2c80a4b1" x="85.82" y="245.24" width="58.47" height="15.47" rx="7.73"/><rect class="a8f8fd22-beb1-4a00-9365-5d9a2c80a4b1" x="85.82" y="266.99" width="162.38" height="15.47" rx="7.73"/><rect class="a8f8fd22-beb1-4a00-9365-5d9a2c80a4b1" x="85.82" y="288.74" width="100.88" height="15.47" rx="7.73"/><rect class="a8f8fd22-beb1-4a00-9365-5d9a2c80a4b1" x="85.82" y="331.26" width="58.47" height="15.47" rx="7.73"/><rect class="a8f8fd22-beb1-4a00-9365-5d9a2c80a4b1" x="85.82" y="353.01" width="162.38" height="15.47" rx="7.73"/><rect class="a8f8fd22-beb1-4a00-9365-5d9a2c80a4b1" x="85.82" y="374.76" width="130.64" height="15.47" rx="7.73"/><line class="e766c9c9-90cb-4c7f-b6e9-ad1e22f49cdd" x1="61.14" y1="146.07" x2="534.34" y2="146.07"/><line class="e766c9c9-90cb-4c7f-b6e9-ad1e22f49cdd" x1="61.14" y1="320.98" x2="511.84" y2="320.98"/><line class="e766c9c9-90cb-4c7f-b6e9-ad1e22f49cdd" x1="61.14" y1="410.61" x2="512.57" y2="410.61"/><line class="e766c9c9-90cb-4c7f-b6e9-ad1e22f49cdd" x1="61.14" y1="233.52" x2="534.34" y2="233.52"/><path class="f3caef93-411d-4ac2-a8c4-630c8e109ca3" d="M402.36,261.67h73.93a13.05,13.05,0,0,1,13,13.05h0a13,13,0,0,1-13,13H402.36a13,13,0,0,1-13.05-13h0A13.05,13.05,0,0,1,402.36,261.67Z"/><path class="fb9ddad4-7068-4640-98c3-281e72c0667e" d="M404.51,266h69.62a8.68,8.68,0,0,1,8.69,8.68h0a8.68,8.68,0,0,1-8.69,8.68H404.51a8.68,8.68,0,0,1-8.68-8.68h0A8.68,8.68,0,0,1,404.51,266Z"/><rect class="f622d6b4-f0fe-4c66-8133-04d6b291e860" x="449.23" y="266.99" width="31.41" height="15.47" rx="7.73"/><circle class="ab9b5386-2865-4c65-8d68-430473f84433" cx="464.69" cy="274.72" r="4.83"/><rect class="f3caef93-411d-4ac2-a8c4-630c8e109ca3" x="389.31" y="347.69" width="100.03" height="26.1" rx="13.05"/><path class="fb9ddad4-7068-4640-98c3-281e72c0667e" d="M404.51,352.06h69.62a8.69,8.69,0,0,1,8.69,8.68h0a8.69,8.69,0,0,1-8.69,8.69H404.51a8.69,8.69,0,0,1-8.68-8.69h0A8.68,8.68,0,0,1,404.51,352.06Z"/><circle class="ab9b5386-2865-4c65-8d68-430473f84433" cx="464.69" cy="360.74" r="4.83"/><rect class="f622d6b4-f0fe-4c66-8133-04d6b291e860" x="449.23" y="353.01" width="31.41" height="15.47" rx="7.73"/><path class="f3caef93-411d-4ac2-a8c4-630c8e109ca3" d="M402.36,175.65h73.93a13,13,0,0,1,13,13h0a13,13,0,0,1-13,13.05H402.36a13,13,0,0,1-13.05-13.05h0A13,13,0,0,1,402.36,175.65Z"/><path class="fb9ddad4-7068-4640-98c3-281e72c0667e" d="M404.51,180h69.62a8.69,8.69,0,0,1,8.69,8.68h0a8.69,8.69,0,0,1-8.69,8.69H404.51a8.69,8.69,0,0,1-8.68-8.69h0A8.68,8.68,0,0,1,404.51,180Z"/><path class="bdcbc624-52f6-45a2-bc70-88bcebab0896" d="M432.5,185.56A14.4,14.4,0,0,0,431,180.7a11.09,11.09,0,0,0-2.26-2.38,15.13,15.13,0,0,0-4.85-3,6.08,6.08,0,0,0-5.49.63,7.35,7.35,0,0,0-2.42,5.08,12.41,12.41,0,0,0,1.3,7.66c1.48,2.59,4.05,4.31,6.21,6.37a25.13,25.13,0,0,1,4.05,5.08,14.3,14.3,0,0,0,1.84,2.7,3.49,3.49,0,0,0,2.91,1.17,5.09,5.09,0,0,0,2.37-1.4c.88-.77,3.26-2.18,3.34-3.39.05-1-1.8-3.24-2.26-4.18A47.19,47.19,0,0,1,432.5,185.56Z"/><path class="a8f8fd22-beb1-4a00-9365-5d9a2c80a4b1" d="M482.7,233.33A43.08,43.08,0,0,0,471,231.88c-6.61.1-13.42,1.7-19.72-.33a35,35,0,0,1-4.72-2,12,12,0,0,1-3.53-2.32c-3.13-3.32-4.48-8.32-5.45-12.77a85.1,85.1,0,0,1-1.49-13.6,10.34,10.34,0,0,1-5.15,1.36c-1.8-.15-3.63-1.53-3.63-3.33a55.89,55.89,0,0,1-.24,12.67c-.28,1.65-.73,3.28-.85,4.95-.54,6.05,2.63,12.09,1.5,18a4.36,4.36,0,0,0,2.05,4.66c1.63.88,3.54,1,5.32,1.46,3.51.89,6.54,3.12,10.09,4,1.63.39,3.34.46,5,.89,2.31.62,4.42,1.95,6.79,2.36,1.77.32,3.63.1,5.39.26,1.56.13,3.09.53,4.65.58,3.84.09,7.45-2.07,10-4.95S481.09,236.79,482.7,233.33Z"/><rect class="f622d6b4-f0fe-4c66-8133-04d6b291e860" x="398" y="180.97" width="31.41" height="15.47" rx="7.73"/><circle class="ab9b5386-2865-4c65-8d68-430473f84433" cx="413.95" cy="188.7" r="4.83"/><path class="bdcbc624-52f6-45a2-bc70-88bcebab0896" d="M466.62,246.19a20.73,20.73,0,0,0,8.82,3.43,38,38,0,0,0,5,.27,126.75,126.75,0,0,0,20.77-1.74c-2.72-3-5.49-6.23-6.53-10.16a16.82,16.82,0,0,1-.32-6.36,47.76,47.76,0,0,1,1.95-8,55.94,55.94,0,0,1-8.78-.22c-1.67-.18-5.74-1.69-7.19-.54s-.33,4.84-.31,6.58v.19a20.89,20.89,0,0,1-1.68,7.67C476.28,242,471.78,245.87,466.62,246.19Z"/><path class="fb9ddad4-7068-4640-98c3-281e72c0667e" d="M480,229.42a17.47,17.47,0,0,0,14.33,2.18,48,48,0,0,1,1.95-8,56.1,56.1,0,0,1-8.79-.22c-1.66-.17-5.74-1.68-7.18-.54S480,227.69,480,229.42Z"/><path class="fb9ddad4-7068-4640-98c3-281e72c0667e" d="M460.7,297.42a5,5,0,0,1,.58,2.37c-.35-1.77-2.79-2.75-2.94-4.5-.08-.8.07-.77.57-.34C459.67,295.58,460,296.73,460.7,297.42Z"/><path class="fb9ddad4-7068-4640-98c3-281e72c0667e" d="M453.28,302.8a3.66,3.66,0,0,1,1.12,1.64,4.17,4.17,0,0,1,.21,2.85,1.4,1.4,0,0,1-.58-1,7,7,0,0,0-.73-1.69c-.29-.46-1.62-1.55-1.6-2.05C451.67,301.81,452.93,302.53,453.28,302.8Z"/><path class="fb9ddad4-7068-4640-98c3-281e72c0667e" d="M452.43,243.58a17.93,17.93,0,0,0,3.69,2.45c3.46,1.76,7.3,2.68,10.79,4.36a49.79,49.79,0,0,1,5,2.9c3.46,2.18,6.92,4.36,10.37,6.57a11.39,11.39,0,0,1,2.29,1.73c1.25,1.34,1.24,3.63,2.38,5.08a6.84,6.84,0,0,0,5,2.33,16.49,16.49,0,0,0,5.61-.95,26.82,26.82,0,0,0,3.21-1.17,15.38,15.38,0,0,0,3.08-1.75,8.83,8.83,0,0,0,3.62-5.73,11.25,11.25,0,0,0-.61-4.67,17.79,17.79,0,0,0-1.11-2.84,10.6,10.6,0,0,0-.88-1.49c-2.38-3.37-6.58-5-10.63-5.75-2.14-.42-4.32-.67-6.47-1a23.66,23.66,0,0,1-3.13.48c-3.29.23-6.53-.66-9.74-1.54l-3.47-.95c-1.73-.48-2.6-2.58-4.35-3a5.87,5.87,0,0,0-2.36.12,32.87,32.87,0,0,0-10.31,3.37A15,15,0,0,0,452.43,243.58Z"/><path class="a4d8c7f2-47ed-48b3-8605-7940b8a0fbd9" d="M398.74,437.11c1.14-.17,2.28-.4,3.4-.66a10.77,10.77,0,0,1-1,3.22c-1.11,2.1-3.28,3.37-5.27,4.66a1.64,1.64,0,0,0-2.07-.13c-2.4,1.45-4.31,3.49-6.86,4.74-.89.44-1.82.79-2.69,1.27a14.44,14.44,0,0,0-5.08,5.25c-.73,1.12-1.32,2.61-.61,3.72a3.23,3.23,0,0,0,1,.92,5.83,5.83,0,0,0,3.54,1.06c.72-.07,1.45-.34,2.24-.47,1-.17,2-.08,3-.17a17.64,17.64,0,0,0,4.24-1.1l5-1.74a28.69,28.69,0,0,0,4.1-1.68c.79-.43,1.54-.93,2.34-1.32a17.94,17.94,0,0,1,2.8-1l2.83-.83a3,3,0,0,1,1.28-.17c.39.08.73.32,1.13.43a3.49,3.49,0,0,0,1.81-.18l3.28-.93a6.07,6.07,0,0,0,1.95-.81c1.51-1.07,1.77-3.19,1.77-5a38.35,38.35,0,0,0-.95-8.33,2.56,2.56,0,0,0-1.06.81,16.12,16.12,0,0,0-1.08-1.36,16.15,16.15,0,0,1-3.28-6,10.52,10.52,0,0,0,2.91-3.28c-1.74-6.61-3.52-13.32-7-19.16-1.16-1.9-2.48-3.68-3.63-5.56-3.44-5.44-4.14-12.33-8.07-17.41a3,3,0,0,1,0-3.55c.45-.59,1.18-1.15,1-1.89-.1-.53-.65-1-.44-1.51.1-.24.35-.37.54-.54.66-.63.58-1.68.64-2.6.15-2.3,1.52-4.35,2.84-6.21a3.87,3.87,0,0,1,1-1.13c.36-.22.78-.32,1.14-.54,1.25-.79,1.16-2.62,1.75-4,.79-1.8,2.76-2.71,4-4.16,1.65-1.86,2.07-4.45,3.81-6.06a3.65,3.65,0,0,1,.57-.47,29.07,29.07,0,0,0-1,8.46c-.17,9.82,2.27,20,1.13,29.75-.9,7.74,3.82,15.45,10.52,19.32a51,51,0,0,0,8.2,3.48c4.19,1.5,8.37,3.05,12.49,4.77q4.35,1.83,8.59,3.93a106.15,106.15,0,0,1,10.16,5.67c4,2.59,8.08,5.22,10.94,9.09a8.69,8.69,0,0,0,4.84-1.78c1.1.87,2.44,1.53,3.47,2.49a10.44,10.44,0,0,1,2.76,5.42h-.43c.05,1,.09,1.93.14,2.9a1.23,1.23,0,0,1-.11.73,1.31,1.31,0,0,1-.39.35l-2.23,1.52c-1.63,1.1-3.42,2.48-3.51,4.45a2.29,2.29,0,0,0,.49,1.59,3.41,3.41,0,0,0,2,.9c3.89.82,7.87,1.62,11.81,1.09a7.77,7.77,0,0,0,5-2.33,10,10,0,0,0,1.76-4.82c.48-2.9.89-5.87,1.21-8.81a19.54,19.54,0,0,1,1.2-5.86.77.77,0,0,1,.32-.39c.16-.07.36,0,.53-.07s.29-.35.35-.56a34.61,34.61,0,0,0,1-8.77,6,6,0,0,0-.34-2.26,4.58,4.58,0,0,0-3.11-2.39,24.53,24.53,0,0,0-4-.48,19.72,19.72,0,0,1-3.33-.61,3,3,0,0,0-1.39-.18,1,1,0,0,0-.84,1,1.11,1.11,0,0,0,.17.47L493,421c-.91-.17-2.18-.57-3.55-.9a6.25,6.25,0,0,1,0-.73,1.38,1.38,0,0,0-.77-1.24l-19.18-10.25L466,405.94c-7.86-4.2-16-8.08-23.85-12.29-.52.16-.95-.44-1.11-1s-.26-1.17-.76-1.41c-.24-.12-.57-.11-.72-.32a.88.88,0,0,1-.14-.65c.25-3.82,3-7.35,2.44-11.14-.23-1.62-1.06-3.21-.72-4.8a22.13,22.13,0,0,1,1.45-3c.94-2.34,0-5.15,1-7.44a17.28,17.28,0,0,0,1.39-4.73,32.29,32.29,0,0,1,2.9-9.39,16.75,16.75,0,0,1,2.7-4.12c.57-.62,1.22-1.18,1.77-1.82,1.67-2,2.29-4.66,2.76-7.26.85-4.65,1.45-9.48.38-14.1a19.75,19.75,0,0,1-.9-4.74c0-1.93.78-4.14-.16-5.69a5,5,0,0,0,1.81-3.09,4,4,0,0,1,.25-1.29,3.75,3.75,0,0,1,1.22-1.09,5,5,0,0,0,1.87-5c1,.45,2-.56,2.51-1.56s.83-2.17,1.84-2.62a15.32,15.32,0,0,1,2.17-.31c1.16-.3,1.86-1.45,2.67-2.3,1.66-1.79,4-2.71,6.17-3.8,6.43-3.28,11.67-8.45,16.8-13.55a56.34,56.34,0,0,0,7.26-8.17,30.45,30.45,0,0,0,1.59-2.62l.13-.07.05.16c.08.32.17.64.26.95.24.73.5,1.5.73,2.24.78,2.18,1.63,4.5,3.23,6.15a7.85,7.85,0,0,0,1.65,1.28,11,11,0,0,0,4.27,1.28q.84.11,1.71.15l1.71.06,11.74.31c-4-5.84-4.35-13.45-4.08-20.57.67-18.29,4.24-36.75.93-54.75a14,14,0,0,0-2.26-6.1c-1.74-2.28-4.6-3.39-7.39-4s-5.68-1-8.29-2.13c-2.17-1-4.18-2.59-6.53-3.11a14.54,14.54,0,0,0-5.22.08q-3.18.48-6.33,1.12l-.5.11h0l-.35.08H486l-.32.07h-.11l-.29.08-.13,0-.27.09-.15.05-.25.08-.16.06-.23.09-.18.07-.21.1-.17.08-.2.1-.17.1-.18.1-.18.12-.17.1-.17.13-.14.11-.17.15-.14.12a1.29,1.29,0,0,0-.16.17l-.12.12-.16.21s-.07.07-.1.11-.13.19-.19.3v0a4.26,4.26,0,0,0-.4.87c-.05.15-.1.3-.14.45a7.53,7.53,0,0,0-.16.95,2,2,0,0,1,0,.48v1a12.92,12.92,0,0,0,.19,1.63,17.69,17.69,0,0,0-.85,29.92,6.22,6.22,0,0,1,.06.86V229a22.35,22.35,0,0,1-.32,3.06,43.09,43.09,0,0,0-8.71-.77c-1.74,0-3.49.16-5.25.29a79.56,79.56,0,0,1-5.26-7.11l-3.87-5.68A55.33,55.33,0,0,1,452.9,213c-.95-1.84-1.69-3.8-2.75-5.59-2.18-3.67-5.73-6.8-6.18-11.06l-1,.21c-.56-.92-1.26-1.88-1.52-2.41a47.19,47.19,0,0,1-3.23-9.44,14.41,14.41,0,0,0-1.54-4.89,10.91,10.91,0,0,0-2.26-2.39,14.82,14.82,0,0,0-4.83-3,6.27,6.27,0,0,0-4.95.29,5.7,5.7,0,0,0-.72-.29,6,6,0,0,0-5.49.64,7.38,7.38,0,0,0-2.41,5.08,12.52,12.52,0,0,0,1.29,7.7c1.46,2.6,4,4.36,6.2,6.42a24.92,24.92,0,0,1,3.9,4.85,52.57,52.57,0,0,1-.3,11.76c-.27,1.67-.72,3.31-.85,5-.53,6.08,2.63,12.16,1.5,18.14a4.44,4.44,0,0,0,2.05,4.7c1.63.87,3.53,1,5.31,1.45,3.51.9,6.54,3.14,10.08,4,1.63.39,3.33.46,5,.89l.25.08a11.89,11.89,0,0,0-2.61,4.95c-.72,3.05,0,6.31-.77,9.36a20.86,20.86,0,0,1-3.56,6.83l-8.52,12.34a75.05,75.05,0,0,1-6.28,8.25C424.74,291,418,294.41,416,299.55c0-.12-.1-.25-.14-.37-2.82,2.07-3.87,5.92-6.11,8.6-1.1,1.3-2.45,2.35-3.63,3.56a40.92,40.92,0,0,0-4,5c-3.33,4.63-6.69,9.29-9.08,14.48-1.25,2.7-2.22,5.5-3.21,8.3-3.9,11-10.28,21.45-12.93,32.84-.64,2.78-2.33,5.29-2.59,8.14-.28,3,1.11,5.95,2.54,8.62,2.18,4.1,4.6,8.07,6.54,12.28,1.13,2.46,2.12,5,3.39,7.39,1.39,2.61,3.09,5,4.54,7.61C394.83,422.59,396.86,429.9,398.74,437.11Zm33.51-208-.35-.18a11.86,11.86,0,0,1-3.52-2.33c-3.13-3.33-4.47-8.36-5.45-12.86-.12-.53-.22-1.06-.32-1.6,3.8,5.39,7.39,11,9.64,17Z"/><path class="fb9ddad4-7068-4640-98c3-281e72c0667e" d="M432.5,185.56A14.4,14.4,0,0,0,431,180.7a11.09,11.09,0,0,0-2.26-2.38,15.13,15.13,0,0,0-4.85-3,6.08,6.08,0,0,0-5.49.63,7.35,7.35,0,0,0-2.42,5.08,12.41,12.41,0,0,0,1.3,7.66c1.48,2.59,4.05,4.31,6.21,6.37a25.13,25.13,0,0,1,4.05,5.08,14.3,14.3,0,0,0,1.84,2.7,3.49,3.49,0,0,0,2.91,1.17,5.09,5.09,0,0,0,2.37-1.4c.88-.77,3.26-2.18,3.34-3.39.05-1-1.8-3.24-2.26-4.18A47.19,47.19,0,0,1,432.5,185.56Z"/><path class="fb9ddad4-7068-4640-98c3-281e72c0667e" d="M482.7,233.33A43.08,43.08,0,0,0,471,231.88c-6.61.1-13.42,1.7-19.72-.33a35,35,0,0,1-4.72-2,12,12,0,0,1-3.53-2.32c-3.13-3.32-4.48-8.32-5.45-12.77a85.1,85.1,0,0,1-1.49-13.6,10.34,10.34,0,0,1-5.15,1.36c-1.8-.15-3.63-1.53-3.63-3.33a55.89,55.89,0,0,1-.24,12.67c-.28,1.65-.73,3.28-.85,4.95-.54,6.05,2.63,12.09,1.5,18a4.36,4.36,0,0,0,2.05,4.66c1.63.88,3.54,1,5.32,1.46,3.51.89,6.54,3.12,10.09,4,1.63.39,3.34.46,5,.89,2.31.62,4.42,1.95,6.79,2.36,1.77.32,3.63.1,5.39.26,1.56.13,3.09.53,4.65.58,3.84.09,7.45-2.07,10-4.95S481.09,236.79,482.7,233.33Z"/><path class="bdcbc624-52f6-45a2-bc70-88bcebab0896" d="M493.19,420.17a10,10,0,0,1,3.39,1.06,8,8,0,0,1,2.95,4c1.58,3.9,1.91,8.2,2,12.42a26.64,26.64,0,0,1-1.28,10.06,6.33,6.33,0,0,1-1.67,2.64,7.11,7.11,0,0,1-7.72.45c-1.66-1.29-2.07-3.58-2.42-5.65-.47-2.78-1.14-5.75-3.22-7.68-1.53-1.45-3.74-2.17-4.86-3.93-1.33-2.11-.63-4.87.22-7.22.72-2,1.82-6.17,3.95-7.22S491,419.77,493.19,420.17Z"/><path class="bdcbc624-52f6-45a2-bc70-88bcebab0896" d="M414.59,430.19a16.07,16.07,0,0,0,3.32,6.18c.94,1.08,2.13,2.4,1.63,3.75a3.39,3.39,0,0,1-.89,1.2c-7,6.85-16.81,10.16-26.54,11.41a.94.94,0,0,1-.47,0c-.28-.12-.36-.49-.39-.8a9.75,9.75,0,0,1,0-3.05c.48-2.38,2.56-4.05,4.6-5.37s4.27-2.57,5.4-4.71c1.41-2.66.82-6.12,2.5-8.61,1.37-2,3.91-2.9,6.32-3.27.84-.13,2.62-1,3.33-.62S414.34,429.35,414.59,430.19Z"/><path class="a8f8fd22-beb1-4a00-9365-5d9a2c80a4b1" d="M494.15,419.93a1,1,0,0,1,.84-1,3.12,3.12,0,0,1,1.39.17,19,19,0,0,0,3.33.62,24.64,24.64,0,0,1,4,.47,4.54,4.54,0,0,1,3.12,2.37,6,6,0,0,1,.34,2.25,34,34,0,0,1-1,8.71c-.06.22-.15.48-.36.56s-.36,0-.53.08a.64.64,0,0,0-.31.39,19.24,19.24,0,0,0-1.21,5.8c-.32,2.91-.73,5.85-1.21,8.76a9.71,9.71,0,0,1-1.76,4.79,7.75,7.75,0,0,1-5,2.3c-3.94.53-7.93-.26-11.83-1.08a3.4,3.4,0,0,1-2-.89,2.26,2.26,0,0,1-.49-1.58c.09-1.95,1.89-3.33,3.51-4.42l2.24-1.5a1.12,1.12,0,0,0,.39-.36,1.23,1.23,0,0,0,.11-.73l-.14-2.9a8.23,8.23,0,0,1,7.16,4.46c.3.61.6,1.33,1.24,1.57a1.63,1.63,0,0,0,1.95-1.18,5,5,0,0,0-.06-2.52c-1.32-7-1-14.23-1.8-21.32a4.76,4.76,0,0,0-.73-2.25C495,421.05,494.23,420.58,494.15,419.93Z"/><path class="a8f8fd22-beb1-4a00-9365-5d9a2c80a4b1" d="M396.52,447.14c-.32.54-.84,1-1.14,1.52a1.31,1.31,0,0,0,.24,1.71,1.76,1.76,0,0,0,1,.1,35,35,0,0,0,18.87-8.55,13,13,0,0,0,2.32-2.54c.61-.93,1.14-2.08,2.17-2.47a38.05,38.05,0,0,1,1,8.31c0,1.84-.27,3.94-1.77,5a6.48,6.48,0,0,1-2,.8L414,452a3.53,3.53,0,0,1-1.82.18c-.38-.1-.73-.35-1.12-.42a2.76,2.76,0,0,0-1.28.16l-2.84.83a18.21,18.21,0,0,0-2.8,1c-.81.39-1.56.88-2.35,1.31a29.24,29.24,0,0,1-4.11,1.67l-5,1.73a17.75,17.75,0,0,1-4.24,1.09c-1,.09-2,0-3,.17a21.29,21.29,0,0,1-2.25.46,6,6,0,0,1-3.54-1,3.35,3.35,0,0,1-1-.92c-.72-1.11-.09-2.57.61-3.7a14.49,14.49,0,0,1,5.08-5.21c.87-.48,1.8-.83,2.7-1.26,2.54-1.24,4.47-3.3,6.87-4.71S397.59,445.38,396.52,447.14Z"/><circle class="bdcbc624-52f6-45a2-bc70-88bcebab0896" cx="489.62" cy="213.96" r="17.5"/><path class="a8f8fd22-beb1-4a00-9365-5d9a2c80a4b1" d="M415.38,302.5a8.16,8.16,0,0,0,3.95,7,16.16,16.16,0,0,0,4.28,1.51c8,1.93,16.2,3.48,24.42,3a13.58,13.58,0,0,0,5.18-1.09,5.54,5.54,0,0,0,3.2-4,3.73,3.73,0,0,1,.25-1.27,3.69,3.69,0,0,1,1.21-1.08,5,5,0,0,0,1.88-5c1,.45,2-.56,2.51-1.55s.84-2.17,1.84-2.6a15.26,15.26,0,0,1,2.18-.31c1.15-.29,1.85-1.45,2.67-2.28,1.65-1.77,4-2.69,6.17-3.78,6.45-3.25,11.7-8.39,16.84-13.45a56,56,0,0,0,7.26-8.12,28.92,28.92,0,0,0,1.6-2.61,73.89,73.89,0,0,0,4-9.22,10.58,10.58,0,0,0,1.05-5.29,2.05,2.05,0,0,0-.1-.48,9.84,9.84,0,0,0-1.59-3.21c-1.77-2.61-4.1-5.08-7.17-5.9s-6.11.17-9.22.83a23.66,23.66,0,0,1-3.13.48c-3.29.23-6.53-.65-9.74-1.53l-3.47-1c-1.73-.48-2.6-2.57-4.35-2.94a5.87,5.87,0,0,0-2.36.12,32.36,32.36,0,0,0-10.31,3.37,15,15,0,0,0-2,1.36,12.67,12.67,0,0,0-4.66,6.87c-.72,3,0,6.27-.77,9.29a20.62,20.62,0,0,1-3.56,6.78l-8.55,12.25a76.58,76.58,0,0,1-6.29,8.18C424,292,415.5,295.71,415.38,302.5Z"/><path class="bdcbc624-52f6-45a2-bc70-88bcebab0896" d="M438.2,185.56a14.4,14.4,0,0,0-1.54-4.86,11.14,11.14,0,0,0-2.27-2.38,15,15,0,0,0-4.84-3,6.08,6.08,0,0,0-5.49.63,7.35,7.35,0,0,0-2.42,5.08,12.4,12.4,0,0,0,1.29,7.66c1.46,2.59,4.06,4.31,6.22,6.37a25.48,25.48,0,0,1,4.05,5.08,14.3,14.3,0,0,0,1.84,2.7,3.48,3.48,0,0,0,2.9,1.17,5.07,5.07,0,0,0,2.38-1.4c.88-.77,3.26-2.18,3.33-3.39.06-1-1.8-3.24-2.25-4.18A47.19,47.19,0,0,1,438.2,185.56Z"/><path class="afab078a-cf8d-4190-a46a-a606c2cdeeef" d="M376.71,388.22c2.18,4.06,4.6,8,6.57,12.19,1.14,2.45,2.12,5,3.39,7.34,1.39,2.59,3.1,5,4.55,7.55,3.63,6.46,5.68,13.75,7.56,20.93A41.6,41.6,0,0,0,413.67,431a10.61,10.61,0,0,0,.9-.58,10.45,10.45,0,0,0,3-3.31c-1.73-6.53-3.51-13.23-7.05-19-1.15-1.89-2.47-3.63-3.63-5.53-3.43-5.4-4.14-12.22-8.07-17.28a3,3,0,0,1,0-3.51c.45-.59,1.18-1.15,1-1.88-.1-.53-.65-1-.44-1.5.1-.24.35-.37.54-.54.66-.61.58-1.67.64-2.57.15-2.29,1.52-4.3,2.85-6.17a3.87,3.87,0,0,1,1-1.13c.36-.22.78-.32,1.13-.54,1.25-.77,1.17-2.6,1.77-4,.78-1.78,2.76-2.69,4.05-4.13,1.65-1.85,2.07-4.41,3.81-6a6.47,6.47,0,0,1,.57-.47,29,29,0,0,0-1,8.43c-.17,9.75,2.27,19.84,1.13,29.53-.9,7.68,3.83,15.34,10.54,19.19a50.6,50.6,0,0,0,8.21,3.46c4.19,1.48,8.39,3,12.5,4.73,2.9,1.21,5.81,2.52,8.61,3.9A105.8,105.8,0,0,1,466,427.71c4,2.57,8.09,5.19,11,9a9.86,9.86,0,0,0,7.08-3.9,27.46,27.46,0,0,0,3.88-7.34,20.3,20.3,0,0,0,1.84-6.92,1.4,1.4,0,0,0-.77-1.24l-19.2-10.16-3.63-1.9c-7.86-4.17-16-8-23.87-12.2-.53.15-1-.45-1.12-1s-.26-1.18-.76-1.41c-.25-.12-.57-.12-.73-.32a.9.9,0,0,1-.13-.64c.26-3.8,3-7.3,2.45-11.07-.23-1.61-1.07-3.19-.73-4.76a22.63,22.63,0,0,1,1.45-3c.94-2.33,0-5.08,1-7.38a16.91,16.91,0,0,0,1.39-4.71,32.14,32.14,0,0,1,2.94-9.32,17.17,17.17,0,0,1,2.7-4.09c.58-.62,1.23-1.18,1.77-1.81,1.68-2,2.29-4.63,2.77-7.17.85-4.63,1.45-9.44.37-14a20.18,20.18,0,0,1-.89-4.71c0-2.12.95-4.59-.51-6.12a4.87,4.87,0,0,0-2.18-1.11,65.89,65.89,0,0,0-10.42-1.92l-16-2.08a14.51,14.51,0,0,1-5.33-1.39,10.61,10.61,0,0,1-4.5-5.75c-2.82,2.06-3.88,5.88-6.12,8.54-1.09,1.3-2.44,2.34-3.63,3.53a40.72,40.72,0,0,0-4,5c-3.34,4.59-6.71,9.22-9.11,14.37-1.24,2.68-2.17,5.47-3.2,8.24-3.92,10.94-10.3,21.32-13,32.62-.65,2.77-2.34,5.26-2.59,8.09C373.88,382.67,375.27,385.58,376.71,388.22Z"/><path class="a8f8fd22-beb1-4a00-9365-5d9a2c80a4b1" d="M444,197.14c.45,4.23,4,7.34,6.19,11,1.06,1.77,1.8,3.72,2.75,5.56a55.19,55.19,0,0,0,3.63,5.8l3.89,5.64a58.11,58.11,0,0,0,7.51,9.44c5.08.86,9.36,4.64,14.19,6.48,3.87,1.45,8.07,1.67,12.13,2.46s8.25,2.37,10.63,5.75a15,15,0,0,1,2,4.36,11.35,11.35,0,0,1,.62,4.66,8.86,8.86,0,0,1-3.63,5.74,20.18,20.18,0,0,1-6.28,2.9,16.24,16.24,0,0,1-5.61.94,6.83,6.83,0,0,1-5-2.32c-1.14-1.45-1.13-3.76-2.38-5.08a11.33,11.33,0,0,0-2.28-1.73l-10.37-6.53a54.39,54.39,0,0,0-5-2.91c-3.49-1.7-7.33-2.63-10.8-4.35s-6.7-4.65-7.38-8.48c-2.11-11.75-10.25-21.66-17.2-31.36.22,0,.16-.57.24-.78a10.1,10.1,0,0,1,5.08-5.14C439.08,198,441.56,197.65,444,197.14Z"/><path class="afab078a-cf8d-4190-a46a-a606c2cdeeef" d="M480.63,197.23a6.39,6.39,0,0,1,.73-3.69c1.15-1.92,3.56-2.59,5.75-3s4.21-.8,6.33-1.11a14.83,14.83,0,0,1,5.23-.09c2.37.52,4.36,2.11,6.54,3.09,2.61,1.17,5.51,1.45,8.3,2.12s5.65,1.74,7.4,4a13.89,13.89,0,0,1,2.26,6.06c3.32,17.87-.26,36.21-.93,54.37-.27,7.07,0,14.63,4.09,20.44l-11.76-.31c-3-.08-6.25-.24-8.62-2.1-2.09-1.63-3.07-4.27-4-6.76a21.06,21.06,0,0,1-1.51-6.06c-.18-4.26,2.24-8.45,1.45-12.65-.58-3.14-2.9-5.68-5.31-7.73s-5.15-3.85-7.13-6.35c-3.52-4.47-4.2-10.56-3.76-16.22.26-3.37.87-6.75.57-10.11a12.79,12.79,0,0,0-2.66-7.09C481.79,201.78,480.81,200.38,480.63,197.23Z"/><path class="fb9ddad4-7068-4640-98c3-281e72c0667e" d="M481.36,193.54c1.13-1.89,3.48-2.57,5.64-3a5.53,5.53,0,0,0-2.8,2.17,6.51,6.51,0,0,0-.72,3.7c.16,3.16,1.14,4.55,3,6.78a12.73,12.73,0,0,1,2.67,7.09c.29,3.37-.31,6.73-.57,10.11-.45,5.66.23,11.76,3.76,16.22,2,2.5,4.69,4.29,7.13,6.35s4.72,4.59,5.31,7.73c.79,4.19-1.64,8.39-1.45,12.66a20.73,20.73,0,0,0,1.5,6.05c.9,2.5,1.88,5.13,4,6.76,2.36,1.86,5.61,2,8.62,2.1l8.33.22c.18.3.38.61.58.91l-11.76-.32c-3-.08-6.25-.24-8.62-2.09-2.09-1.64-3.08-4.27-4-6.76a21.22,21.22,0,0,1-1.51-6.06c-.18-4.27,2.24-8.46,1.45-12.66-.59-3.13-2.9-5.67-5.31-7.73s-5.16-3.84-7.14-6.35c-3.52-4.46-4.19-10.55-3.76-16.22.27-3.37.87-6.74.58-10.11a12.67,12.67,0,0,0-2.67-7.08c-1.87-2.24-2.85-3.63-3-6.79A6.41,6.41,0,0,1,481.36,193.54Z"/><path class="fb9ddad4-7068-4640-98c3-281e72c0667e" d="M393,377.76l21.62,52.65a10.45,10.45,0,0,0,3-3.31c-1.73-6.53-3.51-13.23-7-19-1.15-1.89-2.47-3.63-3.62-5.53-3.44-5.4-4.15-12.22-8.07-17.28a3,3,0,0,1,0-3.51c.45-.59,1.17-1.15,1-1.88-.1-.53-.65-1-.44-1.5.1-.24.35-.37.54-.54.67-.61.58-1.67.64-2.57.15-2.29,1.52-4.3,2.85-6.17a3.87,3.87,0,0,1,1-1.13c.36-.22.78-.32,1.14-.54,1.24-.77,1.16-2.6,1.76-4,.78-1.78,2.76-2.69,4.06-4.13,1.64-1.85,2.06-4.41,3.8-6l.15-.38-1.63-10.16Z"/></g></g></svg>