<svg xmlns="http://www.w3.org/2000/svg" viewBox="0 0 537.59 598"><defs><style>.a5c34679-2dcd-440f-88c0-0e54e4de6252{fill:#01c0ad;opacity:0.3;}.af1b2c4a-6491-4cfd-8f46-9330551fc795{fill:#ffb8b8;}.f5efc0f4-1d94-4d98-b858-d585bf9dd139{fill:#2f2e41;}.abf14f80-ee56-41e9-add5-1044c730decd{fill:#83a4d4;}.a2098a0c-ea34-450e-ba0b-d517309f9749,.f4b39125-ca47-469a-86d8-8952d05e62cb{fill:#3f3d56;}.a2098a0c-ea34-450e-ba0b-d517309f9749{opacity:0.8;isolation:isolate;}.aeb270d4-bf0e-46fd-97f0-67e0411871f7{fill:#d0cde1;}</style></defs><g id="f7c63ed7-1a3a-42cf-b8fa-905899f14ff4" data-name="Layer 2"><g id="a560b3ff-9bc0-441a-9a4e-17428e2b226c" data-name="Layer 1"><path id="b6411b59-8256-4b6e-b75e-93a231a72b74" data-name="Path 1" class="a5c34679-2dcd-440f-88c0-0e54e4de6252" d="M165,6C-2.24,60.63-34.25,472.12,32.65,512.44c49.6,29.89,133.54-156.23,312.72-164.38C457,343,518.7,410.87,534.28,387.94,567.44,339.13,345-52.81,165,6Z"/><g id="e80d664e-fc54-4283-b4f1-0c5df91b2518" data-name="Group 34"><g id="ae0e5a1f-4316-4aae-accf-027a78e04298" data-name="Group 1"><path class="af1b2c4a-6491-4cfd-8f46-9330551fc795" d="M204.56,308.74c5.14,11.91,29.1,15.48,29.1,15.48,19.86-1.37,35.42-11.84,35.42-11.84h0c-3.13-12.79-5.56-26.87-4.41-36.78a47.25,47.25,0,1,0-61.84-5.82C203.8,279.35,205,295,204.56,308.74Z"/><path id="b64f6d40-0ee8-4f54-b6c0-cbdeb4311eb5" data-name="Path 4" class="af1b2c4a-6491-4cfd-8f46-9330551fc795" d="M289.13,562.5s-3.06,1-8,2.53c-11,3.29-31.34,8.76-48.57,9.85-14.84,1-27.38-1.33-29.68-11-1-4.16.41-7.58,3.45-10.4,9.07-8.41,32.77-11.42,51.56-12.45,5.31-.29,10.21-.43,14.3-.48,6.94-.09,11.49.05,11.49.05l.11.43Z"/><path id="b4e6a987-0678-421f-a4a1-884bb22a3d5f" data-name="Path 5" class="f5efc0f4-1d94-4d98-b858-d585bf9dd139" d="M197.79,192.58,189,189.05s18.47-20.34,44.17-18.57l-7.23-8a39.64,39.64,0,0,1,10.85-1.21c17.92.5,29.11,13.34,30.25,14.69a41.07,41.07,0,0,1,7,12l10-4-3,10h7l-4,5c2.13,3.58,11.9,20.84,5.46,39.42a40.41,40.41,0,0,1-6.83,12.2S271.67,228,271.67,224.41v8.84s-8.84-8-8.84-13.26L258,226.18l-2.41-9.73-29.72,9.73,4.82-8-18.47,2.65,7.23-9.72S202.94,212.2,200,224c-2,8-10,15-10,15S170,208,197.79,192.58Z"/><path id="fe6c3a7e-9244-4120-a1ba-d365013f61c4" data-name="Path 7" class="af1b2c4a-6491-4cfd-8f46-9330551fc795" d="M237.78,593.31c-11.81,14.62-60.56-16-77.61-27.44-3.72-2.48-5.92-4.06-5.92-4.06L169.84,541l4.94-6.58s4.42,2.34,11,6.16l.72.42c5.63,3.31,12.71,7.64,19.84,12.46,9.85,6.66,19.81,14.26,26.23,21.42C238.8,581.88,241.69,588.46,237.78,593.31Z"/><path class="abf14f80-ee56-41e9-add5-1044c730decd" d="M368.17,390.8c-1.41-3.45-2.8-6.78-4.14-10-9-21.39-16-36.74-16-36.74h0l-78.93-31.7s-15.56,10.47-35.42,11.84c0,0-24-3.58-29.1-15.48l-72.23,31.92s0,.23.1.68h-.1s-12.55,11.93-17.23,38.78c-.21,1.2-.4,2.42-.57,3.68L90.91,436.42l-16.16,36a20,20,0,0,0,.28,17,214.53,214.53,0,0,0,15.88,27.24A153.15,153.15,0,0,0,111.44,541c8.84,8.35,19,15.44,30.48,19.43l4.75,3.66,13.05,10h0a46.67,46.67,0,0,1,.45-8.27c17.06,11.43,65.8,42.06,77.61,27.44,3.91-4.85,1-11.42-5.25-18.42,17.24-1.1,37.57-6.56,48.57-9.86,1.57,6.26,2.55,11.16,2.55,11.16h0s11.35-5.56,27-13.61h0c12-6.18,26.63-13.84,40.57-21.57,5.84-3.24,11.56-6.49,16.94-9.66,14.45-8.5,26.38-16.36,31.19-21.58C409.71,498.56,386.66,435.76,368.17,390.8Z"/><path class="f4b39125-ca47-469a-86d8-8952d05e62cb" d="M374.79,576.83h-7.53a7.25,7.25,0,0,0,.27-1.93V428.47a7.23,7.23,0,0,0-7.23-7.23H253.36V419H204.88v2.2H97.5a7.23,7.23,0,0,0-7.23,7.23V574.9a7.33,7.33,0,0,0,.27,1.94H87.88a8.63,8.63,0,0,0-8.63,8.63v3.9a8.61,8.61,0,0,0,.59,3.13,8.88,8.88,0,0,0,.62,1.28A8.64,8.64,0,0,0,87.88,598H374.77a8.64,8.64,0,0,0,7.42-4.22,8.88,8.88,0,0,0,.62-1.28,8.61,8.61,0,0,0,.59-3.13v-3.92A8.62,8.62,0,0,0,374.79,576.83Z"/></g><path id="e2313995-78bf-45a9-a7da-865b9fb8de5f" data-name="Path 11" class="a2098a0c-ea34-450e-ba0b-d517309f9749" d="M99.07,52.92c-25.44-2.27-57.93,8.66-71.54,37-16,33.27,1.86,74.3,29.74,90,21.31,12,48.48,9.26,70.81-1.88C138.83,188,160.42,192.53,165,187c3.8-4.59-1.56-19.2-10.05-29.2,8.3-9.36,13.8-20.26,14.86-31.73C172.87,92.87,138.55,56.46,99.07,52.92Z"/><path id="af513008-ff79-4f68-be2f-b6f152e2e406" data-name="Path 12" class="a2098a0c-ea34-450e-ba0b-d517309f9749" d="M423,89c-38.87-13.55-83.35,13.36-94,50-6.9,23.71,1,49.47,16.36,68.64-5.48,11-7.17,24.46-2.93,28s16.49-.61,26.21-7.7c10.89,6.35,23,9.82,35.36,9.08,34.37-2,64.52-36.39,66-74C471.17,133,454.12,99.84,423,89Z"/><path class="aeb270d4-bf0e-46fd-97f0-67e0411871f7" d="M128.58,82.38H98.42V76.57a4,4,0,0,0-8,0v5.81H60.26a4,4,0,1,0,0,8h3.31a247.41,247.41,0,0,0,24.12,39.86c.53.72,1.09,1.42,1.63,2.13a187.9,187.9,0,0,1-25.79,26,4,4,0,1,0,5.1,6.17,196.62,196.62,0,0,0,25.79-25.74,194.8,194.8,0,0,0,25.79,25.74,4,4,0,0,0,2.54.92,4,4,0,0,0,2.55-7.09,187.9,187.9,0,0,1-25.79-26c.54-.71,1.1-1.41,1.63-2.12a247.21,247.21,0,0,0,24.12-39.87h3.32a4,4,0,0,0,0-8Zm-33.86,43.1-.3.39c-.1-.14-.21-.26-.31-.4A239.2,239.2,0,0,1,72.48,90.38h43.88A239,239,0,0,1,94.72,125.48Z"/><path class="aeb270d4-bf0e-46fd-97f0-67e0411871f7" d="M438.28,199.19l-16-39.34h0l-18.48-45.51a4,4,0,0,0-3.71-2.5h0a4,4,0,0,0-3.71,2.51L362.24,199.2a4,4,0,0,0,2.22,5.21,4.11,4.11,0,0,0,1.49.29,4,4,0,0,0,3.71-2.51l14.81-36.79h31.46l14.94,36.8a4,4,0,1,0,7.41-3ZM387.69,157.4l12.44-30.9,12.55,30.9Z"/></g></g></g></svg>